<?xml version="1.0" encoding="utf-8"?>
<!-- Generator: Adobe Illustrator 21.1.0, SVG Export Plug-In . SVG Version: 6.00 Build 0)  -->
<svg version="1.1" id="Layer_1" xmlns="http://www.w3.org/2000/svg" xmlns:xlink="http://www.w3.org/1999/xlink" x="0px" y="0px"
	 viewBox="0 0 960 960" style="enable-background:new 0 0 960 960;" xml:space="preserve">
<style type="text/css">
	.st0{fill:#1E2053;}
	.st1{fill:#FE5E00;}
	.st2{fill:url(#SVGID_1_);}
	.st3{fill:url(#SVGID_2_);}
	.st4{fill:url(#SVGID_3_);}
	.st5{fill:url(#SVGID_4_);}
	.st6{fill:url(#SVGID_5_);}
	.st7{fill:url(#SVGID_6_);}
	.st8{fill:url(#SVGID_7_);}
	.st9{fill:url(#SVGID_8_);}
	.st10{fill:#FFFFFF;}
	.st11{fill:url(#SVGID_9_);}
	.st12{fill:url(#SVGID_10_);}
	.st13{fill:url(#SVGID_11_);}
	.st14{fill:url(#SVGID_12_);}
	.st15{fill:url(#SVGID_13_);}
	.st16{fill:url(#SVGID_14_);}
	.st17{fill:url(#SVGID_15_);}
	.st18{fill:url(#SVGID_16_);}
	.st19{fill:url(#SVGID_17_);}
	.st20{fill:url(#SVGID_18_);}
	.st21{fill:url(#SVGID_19_);}
	.st22{fill:url(#SVGID_20_);}
	.st23{fill:url(#SVGID_21_);}
	.st24{fill:url(#SVGID_22_);}
	.st25{fill:url(#SVGID_23_);}
	.st26{fill:url(#SVGID_24_);}
	.st27{fill:url(#SVGID_25_);}
	.st28{fill:url(#SVGID_26_);}
	.st29{fill:url(#SVGID_27_);}
	.st30{fill:url(#SVGID_28_);}
	.st31{fill:url(#SVGID_29_);}
	.st32{fill:url(#SVGID_30_);}
	.st33{fill:url(#SVGID_31_);}
	.st34{fill:url(#SVGID_32_);}
	.st35{fill:url(#SVGID_33_);}
	.st36{fill:url(#SVGID_34_);}
	.st37{fill:url(#SVGID_35_);}
	.st38{fill:url(#SVGID_36_);}
	.st39{fill:url(#SVGID_37_);}
	.st40{fill:url(#SVGID_38_);}
	.st41{fill:url(#SVGID_39_);}
	.st42{fill:url(#SVGID_40_);}
	.st43{fill:url(#SVGID_41_);}
	.st44{fill:url(#SVGID_42_);}
	.st45{fill:url(#SVGID_43_);}
	.st46{fill:url(#SVGID_44_);}
	.st47{fill:url(#SVGID_45_);}
	.st48{fill:url(#SVGID_46_);}
	.st49{fill:url(#SVGID_47_);}
	.st50{fill:url(#SVGID_48_);}
	.st51{fill:url(#SVGID_49_);}
	.st52{fill:url(#SVGID_50_);}
	.st53{fill:url(#SVGID_51_);}
	.st54{fill:url(#SVGID_52_);}
	.st55{fill:url(#SVGID_53_);}
	.st56{fill:url(#SVGID_54_);}
	.st57{fill:url(#SVGID_55_);}
	.st58{fill:url(#SVGID_56_);}
	.st59{fill:url(#SVGID_57_);}
	.st60{fill:url(#SVGID_58_);}
	.st61{fill:url(#SVGID_59_);}
	.st62{fill:url(#SVGID_60_);}
</style>
<g>
	<path class="st1" d="M737.4,731.4c-29.5-47.6-59.4-100.6-89.3-157c9.8-17.8,15.4-37.4,15.4-59c0-79.6-76.4-192-76.4-232.7
		c0-13.4,6.2-23.4,17.3-25.8c-1.3,2.7-2,5.7-2,8.9c0,11.6,9.7,20.7,21.7,21.1c12.2,0,21.7-10.9,21.7-25.7c0-20.1-18.5-32.4-36-32.4
		c-22.2,0-45.4,11.7-45.4,52.8c0,55.7,56.8,168.5,56.8,213.5c0,8.2-0.8,15.9-2.4,23.2c-47.3-92.5-94.1-191.7-138.8-289.5
		c-44.7,97.8-91.6,197-138.8,289.5c-1.6-7.3-2.4-15-2.4-23.2c0-45.1,56.9-157.8,56.9-213.5c0-41.1-23.2-52.8-45.4-52.8
		c-17.5,0-36,12.3-36,32.4c0,14.8,9.6,25.7,21.7,25.7c12-0.3,21.7-9.4,21.7-21.1c0-3.2-0.7-6.2-2-8.9c11.1,2.4,17.3,12.4,17.3,25.8
		c0,40.8-76.4,153.1-76.4,232.7c0,21.7,5.6,41.3,15.4,59c-29.9,56.4-59.8,109.4-89.3,157L337,680.7l22.1-53.3
		c33.8,26.4,77.4,46.4,121,61c43.6-14.6,87.2-34.6,121-61l22.1,53.3L737.4,731.4z M397.8,587.1l-0.6-0.3c-2.5-1.3-4.9-2.7-7.3-4.2
		l-0.5-0.3v0c-3.2-2-6.2-4.1-9.1-6.2l37.9-91.6v112.2C410.9,593.7,404.1,590.5,397.8,587.1L397.8,587.1z M426.6,599.9V464.3
		l20.4-49.4v191.7c-7-2.1-13.7-4.3-20-6.6L426.6,599.9z M455.6,609.1l-0.2-0.1V394.7l20.4-49.4V614l0,0
		C468.8,612.4,462.1,610.8,455.6,609.1z M484.2,614L484.2,614l0-268.6l20.4,49.4V609l-0.2,0.1C497.9,610.8,491.2,612.4,484.2,614z
		 M513,606.7V414.9l20.4,49.4v135.7l-0.4,0.2C526.7,602.4,520,604.6,513,606.7z M570.6,582.2L570.6,582.2l-0.6,0.3
		c-2.3,1.4-4.8,2.9-7.3,4.2l-0.6,0.3h0c-6.3,3.4-13.1,6.6-20.4,9.6l0,0l0,0V484.4l37.9,91.6C576.8,578.2,573.8,580.2,570.6,582.2z"
		/>
	<linearGradient id="SVGID_1_" gradientUnits="userSpaceOnUse" x1="377.2336" y1="575.8953" x2="217.5823" y2="732.0946">
		<stop  offset="0" style="stop-color:#000000;stop-opacity:0.3"/>
		<stop  offset="0.3" style="stop-color:#000000;stop-opacity:0.145"/>
		<stop  offset="1" style="stop-color:#000000;stop-opacity:0"/>
	</linearGradient>
	<path class="st2" d="M359.1,627.4L337,680.7l-114.4,50.7c29.5-47.6,59.4-100.6,89.3-157.1C322.9,594.4,339.3,612,359.1,627.4z"/>
	<linearGradient id="SVGID_2_" gradientUnits="userSpaceOnUse" x1="584.6758" y1="575.8149" x2="739.1492" y2="732.8772">
		<stop  offset="0" style="stop-color:#000000;stop-opacity:0.3"/>
		<stop  offset="0.3" style="stop-color:#000000;stop-opacity:0.145"/>
		<stop  offset="1" style="stop-color:#000000;stop-opacity:0"/>
	</linearGradient>
	<path class="st3" d="M737.4,731.4L623,680.7L601,627.4c19.7-15.4,36.1-33,47.1-53.1C677.9,630.8,707.9,683.8,737.4,731.4z"/>
	<linearGradient id="SVGID_3_" gradientUnits="userSpaceOnUse" x1="334.0665" y1="617.3699" x2="399.653" y2="452.5408">
		<stop  offset="0" style="stop-color:#000000;stop-opacity:0.3"/>
		<stop  offset="0.4372" style="stop-color:#000000;stop-opacity:0.145"/>
		<stop  offset="1" style="stop-color:#000000;stop-opacity:0"/>
	</linearGradient>
	<path class="st4" d="M341.1,518.1c35.8-70,71.4-143.9,105.9-218.2v114.9l-20.4,49.4l-8.4,20.2l-37.9,91.6
		C359.3,560.8,346.2,541.7,341.1,518.1z"/>
	<linearGradient id="SVGID_4_" gradientUnits="userSpaceOnUse" x1="627.6533" y1="615.1419" x2="560.3409" y2="453.7647">
		<stop  offset="0" style="stop-color:#000000;stop-opacity:0.3"/>
		<stop  offset="0.4372" style="stop-color:#000000;stop-opacity:0.145"/>
		<stop  offset="1" style="stop-color:#000000;stop-opacity:0"/>
	</linearGradient>
	<path class="st5" d="M618.8,518.1c-5,23.6-18.1,42.6-39.1,58l-38-91.7l-8.3-20.1L513,414.9l-0.7-1.6V298.6
		C547.1,373.2,582.8,447.6,618.8,518.1z"/>
</g>
</svg>
