<?xml version="1.0" encoding="iso-8859-1"?>
<!-- Generator: Adobe Illustrator 19.0.0, SVG Export Plug-In . SVG Version: 6.00 Build 0)  -->
<svg version="1.1" id="Capa_1" xmlns="http://www.w3.org/2000/svg" xmlns:xlink="http://www.w3.org/1999/xlink" x="0px" y="0px"
	 viewBox="0 0 512 512" style="enable-background:new 0 0 512 512;" xml:space="preserve">
<g>
	<path style="fill:#FFFFFF;" d="M472.68,183.103l1.144,0.61l0.299-1.262c0.785-3.313,1.048-6.455,0.804-9.608l-1.909-0.332
		c-1.179,2.627-2.357,5.244-3.556,7.851l-0.408,0.887l0.876,0.429C470.859,182.133,471.771,182.618,472.68,183.103z"/>
	<path style="fill:#FFFFFF;" d="M467.311,160.826l-0.076,2.249l1.72-1.451c2.632-2.22,4.905-5.194,6.758-8.841l0.472-0.929
		l-0.948-0.433c-0.452-0.207-0.9-0.417-1.343-0.626c-0.588-0.277-1.168-0.55-1.739-0.805c-1.356-0.614-2.77-1.143-4.322-1.615
		l-1.605-0.489l0.335,1.645C467.23,152.828,467.462,156.312,467.311,160.826z"/>
	<path style="fill:#FFFFFF;" d="M460.703,176.658l-0.674,1.071l1.198,0.408c1.445,0.492,2.891,1.03,4.297,1.6l1.465,0.594
		l-0.091-1.578c-0.151-2.648-0.512-5.055-1.1-7.36l-0.613-2.406l-1.226,2.16C462.966,172.9,461.883,174.782,460.703,176.658z"/>
	<path style="fill:#FFFFFF;" d="M455.311,157.853l0.633,1.48l1.047-1.222c2.476-2.89,4.71-5.98,6.832-9.448l0.735-1.201
		l-1.376-0.298c-1.895-0.41-3.842-0.752-5.725-1.083c-0.912-0.161-1.831-0.322-2.755-0.493l-1.276-0.236l0.168,2.258
		C453.832,150.941,454.13,155.088,455.311,157.853z"/>
	<path style="fill:#FFFFFF;" d="M448.186,174.727l1.444,0.293c1.98,0.402,3.933,0.855,5.806,1.347l1.558,0.409l-0.324-1.578
		c-0.56-2.729-1.109-5.467-1.659-8.206l-0.521-2.598l-1.325,2.294c-1.4,2.424-2.765,4.65-4.171,6.803L448.186,174.727z"/>
	<path style="fill:#FFFFFF;" d="M441.82,146.409c0.068,0.34,0.138,0.942,0.21,1.579c0.207,1.815,0.385,3.149,0.76,3.966
		c-0.091,0.58-0.061,1.006,0.223,1.356l0.359,0.398h0.477c0.647,0,1.087-0.433,2.017-2.003c0.79-0.912,1.604-1.895,2.478-2.992
		c0.52-0.632,1.034-1.27,1.548-1.905l1.561-1.926l-1.361-0.461c-1.684-0.57-3.262-1.233-4.933-1.936
		c-0.88-0.37-1.761-0.74-2.658-1.097l-1.637-0.649l0.366,2.271C441.407,144.124,441.592,145.274,441.82,146.409z"/>
	<path style="fill:#FFFFFF;" d="M443.017,164.055l-0.435-1.975l-1.306,1.545c-1.593,1.885-3.193,3.769-4.795,5.654L435,171.023
		l1.206,0.548c2.626,1.194,5.383,1.85,7.49,2.289l1.501,0.312l-0.318-1.499C444.268,169.799,443.647,166.917,443.017,164.055z"/>
	<path style="fill:#FFFFFF;" d="M432.004,147.357l0.438,1.963l1.302-1.534c1.568-1.847,3.094-3.959,4.663-6.455l0.758-1.205
		l-1.391-0.305c-2.256-0.494-4.598-0.575-6.615-0.613l-1.366-0.025l0.389,1.311C430.997,143.24,431.56,145.356,432.004,147.357z"/>
	<path style="fill:#FFFFFF;" d="M425.547,161.54l-1.085,0.76l1.027,0.835c1.065,0.866,2.09,1.848,3.082,2.798
		c0.53,0.508,1.061,1.016,1.603,1.513l1.641,1.506l0.184-11.645l-1.559,0.974C428.935,159.222,427.38,160.257,425.547,161.54z"/>
	<path style="fill:#FFFFFF;" d="M418.973,138.753c0.911,2.263,1.739,4.3,2.645,6.317l0.622,1.384l1.026-1.118
		c1.302-1.418,2.601-3.008,3.86-4.725l1.059-1.444l-1.785-0.144c-1.58-0.127-2.953-0.381-4.196-0.776
		c-0.694-0.222-1.366-0.528-1.873-0.77l-2.317-1.106L418.973,138.753z"/>
	<path style="fill:#FFFFFF;" d="M420.65,160.333l1.769,0.68l-0.436-1.843c-0.089-0.376-0.43-1.896-0.521-2.284
		c-0.056-0.23-0.114-0.571-0.183-0.963c-0.158-0.902-0.354-2.025-0.659-2.879l-0.375-1.053l-1.005,0.49
		c-0.597,0.292-1.221,0.711-1.722,1.049c-0.217,0.146-0.407,0.275-0.54,0.355c-0.789,0.456-1.604,0.964-2.483,1.547
		c-0.393,0.254-0.774,0.536-1.22,0.864l-1.524,1.125l1.789,0.624c1.039,0.362,2.105,0.682,3.137,0.99
		C417.997,159.429,419.36,159.837,420.65,160.333z"/>
	<path style="fill:#FFFFFF;" d="M408.209,116.193c0.845,0.202,1.799,0.308,2.757,0.308c1.501,0,2.966-0.261,4.115-0.733
		c1.332-0.532,2.166-1.404,2.974-2.247l1.092-1.121l-0.821-0.694c-1.19-1.005-2.517-1.795-3.944-2.348l-1.635-0.634l0.287,1.73
		c0.186,1.125,0.164,2.024-0.065,2.671c-0.065,0.184-0.342,0.344-0.593,0.344c-0.18,0-0.189-0.054-0.209-0.174
		c-0.149-0.887-0.105-1.854-0.06-2.877c0.012-0.277,0.024-0.553,0.033-0.827l0.027-0.917l-1.052-0.125
		c-0.147-0.02-0.299-0.039-0.428-0.046c-0.509-0.039-1.016-0.056-1.521-0.056c-1.335,0-2.658,0.119-3.938,0.233
		c-0.523,0.047-1.048,0.094-1.572,0.133l-1.26,0.093l0.38,1.204C403.537,112.52,404.841,115.388,408.209,116.193z"/>
</g>
<g>
	<path style="fill:#615260;" d="M306.348,71.602c3.673,3.725,7.44,7.769,11.855,12.723l0.87,0.977
		c5.624,6.306,11.998,13.453,13.155,21.924c1.1,8.022-2.485,13.522-10.657,16.35c-2.724,0.951-5.652,1.919-8.952,2.961l0.486,1.936
		c4.127-0.78,7.738-1.16,11.041-1.16c7.554,0,13.257,1.992,17.433,6.09c5.205,5.114,3.164,11.295,1.485,14.522
		c-1.147,2.188-2.335,4.233-3.533,6.08l1.451,1.335c4.288-3.321,8.263-4.934,12.152-4.934l0.352,0.004
		c6.478,0.154,12.908,3.815,19.112,10.88l0.134,0.153l0.184,0.088c2.202,1.06,4.302,2.371,6.524,3.758
		c1.463,0.913,2.976,1.857,4.522,2.724c3.124,1.749,6.459,2.705,9.685,3.628c1.475,0.422,2.999,0.859,4.48,1.365
		c3.191,1.091,6.054,2.667,9.085,4.335c0.998,0.55,1.999,1.101,3.014,1.634c8.168,4.292,17.458,6.195,26.441,8.035
		c1.828,0.374,3.646,0.747,5.441,1.137c1.16,0.252,2.551,0.606,4.023,0.982c4.854,1.237,10.896,2.777,16.411,2.777
		c5.2-0.001,9.047-1.438,11.432-4.271l0.851-1.01l-1.202-0.545c-9.123-4.136-18.702-7.076-30.148-9.253
		c-3.984-0.749-8.612-1.958-12.722-5.239c-0.947-0.754-1.885-1.57-2.792-2.36c-2.34-2.037-4.759-4.144-7.715-5.532
		c-1.842-0.866-3.715-1.477-5.526-2.069c-2.927-0.956-5.691-1.858-8.199-3.736c-2.469-1.853-4.483-4.084-6.617-6.446
		c-0.755-0.836-1.512-1.673-2.287-2.491c-6.823-7.214-15.245-13.619-25.032-19.038c-0.191-0.106-0.255-0.289-0.189-0.545
		c0.056-0.217,0.224-0.448,0.423-0.448c0.044,0,0.093,0.009,0.146,0.027c9.028,3.002,16.69,5.001,24.739,5.001
		c3.609,0,7.063-0.401,10.556-1.226c1.782-0.42,3.118-0.608,4.333-0.608c1.509,0,2.907,0.292,4.403,0.918
		c0.805,0.334,1.569,0.73,2.378,1.15c1.359,0.705,2.765,1.434,4.357,1.834c2.155,0.555,4.362,0.573,6.496,0.591
		c0.735,0.006,1.468,0.012,2.191,0.04c4.294,0.175,7.731,1.098,11.494,3.086c4.923,2.595,9.99,3.591,15.181,4.461
		c4.292,0.721,8.891,1.674,13.433,3.744c0.464,0.211,0.938,0.441,1.423,0.674c2.253,1.087,4.807,2.32,7.479,2.32
		c0.686,0,1.358-0.082,1.999-0.245c3.669-0.937,7.645-4.701,9.454-8.95c1.276-2.998,1.287-5.872,0.028-8.093
		c-2.287-4.024-7.259-5.512-11.821-6.436c-3.911-0.79-7.41-1.551-10.63-2.866l-0.433-0.149l-0.383,0.162
		c-2.002,0.382-3.587,1.604-4.468,3.447c-0.354,0.751-0.502,1.507-0.647,2.238c-0.1,0.506-0.195,0.991-0.351,1.43
		c-1.276-1.277,0.052-3.968,0.221-4.295c0.6-1.164,1.504-2.137,2.613-2.815l1.421-0.868l-1.435-0.846
		c-1.024-0.604-2.003-1.264-2.907-1.961l-0.418-0.321l-0.501,0.163c-1.402,0.455-2.89,1.02-4.311,2.476
		c-1.478,1.529-2.129,3.116-2.633,5.146c-0.354-0.443-0.519-0.946-0.503-1.53c0.043-1.636,1.476-3.615,2.883-4.857
		c0.839-0.753,1.614-1.247,2.369-1.509l1.926-0.667l-1.706-1.115c-1.444-0.945-3.045-1.747-5.188-2.602l-0.235-0.094l-0.252,0.03
		c-1.831,0.217-3.743,0.541-5.239,1.888c-1.356,1.214-2.087,2.969-2.722,4.538c-0.23-0.77-0.216-1.579,0.045-2.416
		c0.496-1.588,1.869-3.111,3.583-3.974l1.992-1.002l-2.073-0.821c-1.57-0.622-2.739-1.16-3.793-1.745l-0.296-0.127h-0.259
		c-2.376,0-4.608,1.07-5.829,2.796c-0.921,1.313-1.049,2.722-1.161,3.966c-0.06,0.651-0.115,1.274-0.277,1.857
		c-0.354-0.313-0.577-0.734-0.676-1.276c-0.318-1.74,0.755-4.392,1.915-5.683c0.857-0.951,1.941-1.627,3.133-1.956l1.759-0.485
		l-1.354-1.222c-1.723-1.553-2.843-3.411-3.525-5.844l-0.194-0.708c-1.053-3.839-1.814-6.613-5.429-9.623l-1.651-1.368
		c-4.803-3.969-9.34-7.717-12.553-13.302c-3.226-5.614-5.46-12.127-7.246-21.118c-1.55-7.746-2.452-15.646-2.681-23.483l-1.995-0.07
		c-0.554,5.569-0.734,10.709-0.554,15.715c0.428,12.033,2.888,24.682,7.52,38.669l0.109,0.332l0.293,0.191
		c4.646,3.034,7.874,6.345,8.521,12.643c0.018,0.169-0.031,0.223-0.05,0.243c-0.063,0.07-0.218,0.141-0.422,0.141
		c-0.083,0-0.502-0.018-0.605-0.36c-1.266-4.233-3.568-7.267-7.467-9.838l-0.209-0.138l-0.249-0.023
		c-0.149-0.014-0.243-0.072-0.322-0.201l-0.129-0.208l-0.211-0.126c-1.586-0.942-3.271-1.773-4.709-2.462
		c-4.274-2.043-8.184-4.663-11.619-7.788c-1.373-1.247-2.604-2.557-3.794-3.824c-2.184-2.322-4.441-4.724-7.518-6.644
		c-4.44-2.778-8.226-5.901-11.255-9.279c-6.063-6.77-9.804-15.48-13.422-23.904l-0.755-1.756c-1.12-2.586-2.609-5.989-4.192-9.385
		l-1.873,0.678c1.858,7.02,3.233,14.209,4.442,20.932c2.023,11.252,4.07,27.555-1.497,39.17c-1.935,4.035-4.521,5.997-7.905,5.997
		c-4.502,0-9.801-3.354-14.475-6.313c-1.137-0.719-2.237-1.416-3.289-2.042c-8.723-5.173-17.404-10.226-25.805-15.019
		L306.348,71.602z M480.434,144.389c-0.243,0.329-0.548,0.51-0.959,0.572c-0.109,0.016-0.216,0.024-0.319,0.024
		c-0.512,0-0.992-0.198-1.371-0.534l-0.336-0.321h-0.234c-2.407-1.044-2.156-4.19-1.785-5.992c0.048-0.227,0.357-0.545,0.564-0.585
		c0.273-0.051,0.55-0.077,0.82-0.077c1.747,0,3.214,1.035,3.834,2.716c0.082,0.211,0.155,0.484,0.219,0.811l0.004,0.085l0.033,0.094
		l0.008,0.057C481.104,142.522,480.922,143.729,480.434,144.389z M477.089,133.957c1.102,0,2.184,0.207,3.218,0.615
		c0.745,0.29,4.388,1.844,4.354,4.379c-0.571-0.392-1.068-0.9-1.591-1.435c-0.746-0.764-1.519-1.554-2.6-2.113
		c-1.411-0.733-2.893-1.105-4.403-1.105c-0.917,0-1.828,0.141-2.715,0.419C474.601,134.212,475.856,133.957,477.089,133.957z
		 M369.756,82.916c0.828,4.183,1.899,8.112,5.626,11.418c0.419,0.365,1.084,0.725,1.854,1.143c0.284,0.153,0.582,0.315,0.882,0.484
		l2.063,1.167l-0.604-2.292c-0.486-1.846-0.775-3.728-0.944-5.436c0.774,4.508,2.861,11.026,8.478,13.118l2.213,0.825l-0.948-2.163
		c-0.272-0.621-0.474-1.255-0.604-1.899c3.381,4.779,9.74,6.95,15.19,6.95c1.071-0.003,2.112-0.063,3.12-0.122
		c1.005-0.059,1.955-0.114,2.91-0.114c1.814,0,3.234,0.208,4.605,0.673c5.352,1.824,8.966,5.979,10.174,11.7
		c0.052,0.246-0.033,0.351-0.062,0.385c-0.086,0.106-0.239,0.175-0.392,0.175c-0.189,0-0.306-0.098-0.373-0.304
		c-0.215-0.688-0.496-1.325-0.718-1.803l-1.907,0.44c0.017,0.818-0.14,1.675-0.454,2.482c-0.39,1.016-0.958,1.862-1.646,2.448
		c-0.479,0.409-0.802,0.507-1.349,0.56c0.107-0.129,0.212-0.26,0.315-0.39c0.168-0.212,0.334-0.424,0.507-0.6
		c0.68-0.693,1.15-1.357,1.471-2.076c0.395-0.84,0.592-1.757,0.604-2.802l0.025-2.144l-1.658,1.357
		c-1.552,1.269-4.2,2.026-7.086,2.026c-0.819,0-1.624-0.065-2.329-0.188c-3.28-0.572-5.42-2.517-6.541-5.945l-1.943,0.19
		c-0.172,1.418-0.296,3.273,0.268,5.038c0.783,2.512,2.536,3.663,4.464,4.498c-1.99-0.119-3.477-1.099-4.422-2.917
		c-1.512-2.898-0.801-6.172-0.012-8.7l0.361-1.161l-1.209-0.131c-0.485-0.053-1.006-0.118-1.515-0.238
		c-2.505-0.597-4.906-1.807-6.76-3.405l-0.477-0.411l-0.576,0.251c-0.033,0.014-0.131,0.047-0.379,0.047c-0.002,0-0.004,0-0.005,0
		c-3.907-0.182-6.77-2.104-8.751-5.876l-0.357-0.678l-0.747,0.166c-0.048,0.011-0.101,0.016-0.155,0.016
		c-0.064,0-0.131-0.008-0.185-0.021c-3.931-0.975-7.015-4.482-8.59-7.441c-0.896-1.673-1.414-3.347-1.586-5.113
		C369.505,85.047,369.616,84.005,369.756,82.916z"/>
	<path style="fill:#615260;" d="M58.801,57.665c5.815,4.136,12.138,8.42,18.964,11.735c7.772,3.766,15.774,5.29,23.304,6.527
		c7.075,1.164,14.604,2.835,21.724,7.139c2.313,1.397,4.61,2.905,6.832,4.362c4.256,2.791,8.655,5.677,13.392,7.952
		c8.002,3.862,15.862,5.82,23.362,5.82c0.699,0,1.4-0.017,2.102-0.052c7.528-0.375,14.758-2.764,21.749-5.075l0.135-0.044
		c1.937-0.639,3.865-1.313,5.793-1.986c8.08-2.823,16.436-5.742,24.93-5.742c2.767,0,5.379,0.295,7.989,0.903
		c0.041,0.009,0.128,0.029,0.15,0.226c0.024,0.208-0.066,0.368-0.166,0.386c-1.397-0.154-2.834-0.235-4.393-0.246l-0.321-0.002
		l-0.263,0.186c-9.098,6.435-15.246,14.966-18.796,26.084c-1.724,5.425-2.845,11.067-3.929,16.524
		c-1.064,5.359-2.165,10.901-3.831,16.176c-2.895,9.142-7.66,17.827-14.572,26.552c-3.83,4.849-7.081,9.594-9.939,14.507
		l-0.076,0.176l-0.034,0.141c-1.105,2.345-2.238,4.694-3.375,7.05c-5.801,12.022-11.799,24.454-14.4,37.369l-0.063,0.311
		l0.129,0.291c1.295,2.929,2.443,5.989,3.555,8.949c1.747,4.658,3.555,9.475,6.01,14.003c4.715,8.693,10.625,16.691,17.566,23.774
		c21.781,22.209,52.285,32.553,95.998,32.553c3.233,0,6.634-0.055,10.107-0.164c7.323-0.227,14.761-0.645,21.953-1.049
		c10.701-0.602,21.767-1.225,32.65-1.225c1.823,0,3.65,0.017,5.476,0.055c6.048,0.113,11.943,0.441,17.596,0.979
		c7.924,0.179,15.765,1.426,23.354,3.722c4.818,1.185,8.729,2.674,12.042,4.598c9.957,4.574,23.394,12.492,30.853,24.236
		c6.188,9.77,7.643,22.825,3.798,34.072c-3.775,11.083-12.851,19.974-25.553,25.033c-6.31,2.51-13.385,4.051-21.631,4.713
		c-3.534,0.283-7.299,0.561-11.057,0.561c-4.431,0-8.089-0.387-11.184-1.183l-0.07-0.018l-0.072-0.007
		c-2.127-0.227-4.401-0.529-6.954-0.924l-0.266-0.017l-0.168,0.031c-0.066,0-0.125-0.014-0.176-0.042l-0.152-0.085l-0.173-0.027
		c-6.775-1.086-14.007-2.65-22.756-4.921c-10.724-2.792-21.647-6.341-32.21-9.772c-24.448-7.942-49.728-16.154-75.552-16.154
		c-7.151,0-14.188,0.64-20.915,1.9c-24.331,4.561-48.35,16.726-73.428,37.188l1.125,1.645c13.13-7.449,27.555-13.023,42.873-16.566
		c12.912-2.989,26.454-4.505,40.25-4.505c11.137,0,22.633,0.988,34.167,2.937l0.141,0.024l0.141-0.016
		c2.249-0.258,4.614-0.389,7.028-0.389c7.681,0,16.218,1.285,26.867,4.044c13.492,3.486,28.094,8.415,44.638,15.069
		c5.654,2.273,11.244,5.025,16.649,7.688c6.646,3.273,13.519,6.658,20.615,9.207c10.068,3.611,20.638,5.442,31.415,5.442
		c3.142,0,6.313-0.161,9.425-0.479c34.154-3.498,54.756-23.068,62.646-40.216c11.063-24.035,6.791-57.079-9.935-76.864
		c-14.355-16.979-34.457-23.986-53.895-30.763c-3.435-1.197-6.985-2.435-10.453-3.71l-0.167-0.061c0,0-0.234,0.001-0.255,0.002
		c-14.799-2.359-30.699-3.457-50.026-3.457c-1.358,0-2.721,0.005-4.084,0.015c-3.275,0.023-6.553,0.063-9.83,0.103
		c-4.933,0.06-10.033,0.122-15.048,0.122c-10.692,0-18.922-0.284-26.683-0.921c-30.171-2.487-53.015-10.976-69.838-25.951
		c-16.869-15-25.774-38.296-25.074-65.597c0.651-25.507,10.999-48.657,28.389-63.515c19.657-16.787,47.321-27.311,73.971-28.15
		c0.058,0,0.109,0.014,0.161,0.024l1.094,0.198l0.083-1.107c0.809-10.75,0.242-21.658-1.684-32.421l-0.06-0.332l-0.249-0.228
		c-2.171-1.991-4.342-3.972-6.53-5.961c-0.332-0.304-0.418-0.672-0.254-1.094c0.199-0.512,0.706-0.898,1.179-0.898
		c0.185,0,0.356,0.05,0.529,0.154c3.094,1.886,6.463,3.903,10.602,6.347l0.254,0.15c0,0,1.147-0.041,1.571-0.053
		c2.34-0.069,4.76-0.141,7.29-0.945c3.021-0.969,6.03-2.467,9.198-4.58c0.893-0.594,1.803-1.248,2.783-1.998l2.032-1.554
		l-2.547-0.236c-9.501-0.881-18.023-1.309-26.057-1.309c-1.585,0-3.162,0.021-4.717,0.055v-0.006l-1.002,0.026
		c-0.001,0-0.003,0-0.004,0l-0.994,0.026v0.014c-7.392,0.227-14.583,0.854-21.379,1.89c-9.063,1.366-18.146,3.422-27,6.112
		c-4.227,1.283-8.485,2.741-12.656,4.333c-1.236,0.47-2.481,1.009-3.685,1.529l-1.242,0.535l-3.029,1.293l3.236,0.61
		c1.854,0.349,3.698,0.829,5.479,1.425l0.297,0.1l0.302-0.088c1.474-0.432,3.223-0.66,5.058-0.66c4.727,0,9.091,1.478,11.39,3.857
		c1.064,1.102,1.702,2.388,1.905,3.843c-2.078-2.294-4.555-4.435-8.098-5.544c-1.582-0.493-3.149-0.635-4.339-0.704l-0.561,1.863
		c1.977,1.151,3.761,2.521,5.315,4.079c-9.05-4.31-17.737-6.405-26.54-6.405l-0.47,0.002c-9.094,0.072-18.052,2.018-26.715,3.9
		c-1.145,0.249-2.291,0.498-3.435,0.742c-7.861,1.673-17.02,3.458-26.23,3.458c-0.958,0-1.919-0.019-2.881-0.059
		c-8.771-0.359-17.969-2.281-28.117-5.874c-8.69-3.081-16.743-7.272-26.16-12.617c-10.221-5.811-20.789-8.842-30.688-11.252
		c-9.795-2.385-20.103-5.567-31.514-9.728l-0.906,1.766c4.516,3.077,9.051,6.345,13.436,9.505
		C54.485,54.575,56.635,56.124,58.801,57.665z"/>
	<path style="fill:#615260;" d="M423.006,391.476l0.223,2.099l1.483-1.502c1.657-1.679,3.143-3.483,4.416-5.362l0.26-0.384
		l-0.125-0.446c-1.658-5.921-3.372-12.043-8.848-17.048c-3.967-3.63-9.053-6.126-15.116-7.42l-0.774,1.803
		c5.85,4.005,10.014,9.57,12.476,13.532C420.556,382.479,422.576,387.435,423.006,391.476z"/>
	<path style="fill:#615260;" d="M388.641,333.18c2.938-4.95,5.912-8.133,8.842-9.459l2.017-0.913l-2.018-0.91
		c-2.772-1.251-5.664-2.403-8.593-3.423l-0.053-0.019l-2.54-0.584l-0.266,0.906c-0.498,1.701-1.061,3.392-1.605,5.027
		c-1.412,4.245-2.873,8.634-3.301,13.494c-0.252,2.787-0.268,5.643-0.051,8.73l1.962,0.193
		C384.218,341.886,386.156,337.376,388.641,333.18z"/>
	<path style="fill:#615260;" d="M327.88,365.489l0.535,2.753l0.018,0.138l0.075,0.311l0.168,0.187
		c4.557,5.07,7.965,9.284,10.876,14.621c3.011,5.509,5.28,11.411,6.938,18.043l0.153,0.614l0.621,0.124
		c3.05,0.608,5.916,1.118,8.762,1.558l1.751,0.271l-0.673-1.638c-3.125-7.618-7.824-13.832-12.771-20.053
		c-5.242-6.593-9.65-11.255-14.293-15.116L327.88,365.489z"/>
	<path style="fill:#615260;" d="M334.021,314.784l-1.729,0.067c-2.823,0.11-5.647,0.24-8.49,0.38l-1.057,0.052l0.111,1.052
		c0.866,8.208,3.142,15.17,6.958,21.287c0.208,0.33,0.425,0.706,0.653,1.101c0.78,1.349,1.666,2.879,2.8,3.833l1.558-1.171
		c-4.239-9.547-4.841-18.919-1.609-25.069L334.021,314.784z"/>
	<path style="fill:#615260;" d="M261.721,19.517c1.26,0.499,2.475,0.98,3.626,1.402c7.051,2.585,13.051,5.253,18.344,8.159
		c13.315,7.282,22.202,15.027,26.415,23.019l0.257,0.487l0.549,0.043c4.538,0.358,8.963,0.903,13.151,1.619l3.756,0.642
		l-2.957-2.403c-2.191-1.781-4.294-3.819-6.327-5.791c-2.254-2.184-4.584-4.443-7.086-6.41c-5.939-4.669-12.477-8.938-19.989-13.052
		c-6.982-3.806-14.276-7.228-21.678-10.17c-5.329-2.131-11.03-4.104-16.615-4.104c-1.766,0-3.473,0.199-5.074,0.591l0.148,1.967
		C252.617,15.915,257.454,17.829,261.721,19.517z"/>
	<path style="fill:#615260;" d="M266.807,317.197l-1.27-0.047c-3.24-0.119-6.153-0.285-8.907-0.507l-1.261-0.102l0.192,1.25
		c1.753,11.417,5.62,20.442,11.822,27.593l1.683-1.032c-3.881-9.55-4.757-18.275-2.604-25.933L266.807,317.197z"/>
	<path style="fill:#615260;" d="M129.727,11.819c1.227,1.596,2.443,3.201,3.688,4.875c0.727,0.84,1.475,1.747,2.034,2.693
		l0.062,0.092c5.901,7.875,12.59,16.8,20.355,24.72c10.564,10.787,22.173,19.015,34.464,27.725l1.834,1.3l0.422-0.085
		c4.57-0.912,10-1.908,15.621-2.374c0.797-0.068,1.605-0.128,2.413-0.167l0.278-1.944c-5.938-2.056-11.781-5.313-17.259-8.472
		c-7.619-4.39-15.295-9.833-22.814-16.177c-7.079-5.976-14.207-12.866-21.79-21.064c-1.359-1.471-2.734-3.165-4.19-4.959
		c-4.912-6.053-10.48-12.915-17.995-14.041l-2.005-0.301l0.981,1.773C127.008,7.551,128.271,9.628,129.727,11.819z"/>
	<path style="fill:#615260;" d="M172.662,275.418l-0.285-0.364c-2.786-3.561-5.366-7.32-7.669-11.176l-1.795-3.005l-0.063,3.5
		c-0.023,1.241-0.05,2.477-0.077,3.71c-0.205,9.333-0.4,18.147,1.355,27.464c1.505,7.931,3.97,15.793,7.328,23.369l1.891-0.621
		c-3.21-14.564-3.479-29.234-0.777-42.424L172.662,275.418z"/>
</g>
<g>
	<path style="fill:#79B4ED;" d="M394.817,390.253c-1.509,1.703-3.068,3.463-4.3,5.648c-1.726,3.076-2.674,6.17-3.373,8.792
		l-0.344,1.285l1.33-0.027c2.189-0.045,4.039-0.109,5.905-0.21c8.52-1.169,16.014-3.59,22.271-7.192
		c1.546-0.885,3.1-1.935,4.618-3.12l0.476-0.371l-0.106-0.594c-0.182-1.01-0.291-2.023-0.406-3.095
		c-0.18-1.667-0.366-3.39-0.845-5.088c-0.854-3.052-2.346-6.23-4.56-9.718c-2.165-3.397-4.82-6.457-8.608-9.92l-1.522,1.269
		l0.426,0.672c0.28,0.44,0.561,0.88,0.824,1.322l0.126,0.208c0.972,1.608,1.518,2.669,0.907,3.839
		c-0.508,0.96-1.225,1.096-2.668,1.29l-0.272,0.037c-0.739,0.1-1.546,0.149-2.466,0.149c-1.699,0-3.53-0.172-5.145-0.324
		l-1.965-0.185l1.013,1.694c2.189,3.658,4.08,6.818,1.338,10.476C396.636,388.201,395.711,389.244,394.817,390.253z"/>
	<path style="fill:#79B4ED;" d="M400.965,323.575l-0.639-0.317l-0.508,0.5c-0.839,0.826-1.802,1.515-2.821,2.244
		c-1.124,0.805-2.287,1.637-3.316,2.694c-1.775,1.839-3.365,4.111-5.002,7.151c-1.26,2.345-2.256,4.826-3.143,7.157l1.667,1.037
		c0.862-0.928,1.752-1.6,2.643-1.996c0.673-0.298,1.247-0.449,1.705-0.449c1.246,0,1.662,1.296,2.076,4.019
		c0.285,1.88,0.58,3.825,2.31,3.825h0.014c0.584,0,0.584,0,2.609-2.959c1.189-1.738,3.182-4.648,3.659-5.116
		c2.231-2.183,4.786-3.952,7.589-5.256c1.407-0.647,3.531-1.493,5.654-1.842l2.351-0.386l-1.922-1.407
		C411.659,329.374,406.776,326.463,400.965,323.575z"/>
	<path style="fill:#79B4ED;" d="M364.273,34.507c4.485,10.193,9.124,20.734,17.518,28.948c1.993,1.947,4.307,3.421,6.544,4.846
		c2.348,1.496,4.565,2.909,6.433,4.819c4.343,4.42,8.04,8.044,12.76,11.099c1.233,0.799,2.458,1.521,3.607,2.194l2.486,1.454
		l-1.051-2.682c-7.766-19.829-9.46-42.727-4.647-62.822l0.58-2.422l-2.094,1.349c-7.413,4.774-16.919,7.512-26.082,7.512
		c-1.271,0-2.545-0.053-3.785-0.157c-5.679-0.469-11.13-2.107-14.953-4.492l-2.926-1.825l1.495,3.107
		C361.593,28.414,362.956,31.511,364.273,34.507z"/>
	<path style="fill:#79B4ED;" d="M351.862,159.206l0.603-0.027c0.496-0.022,0.987-0.033,1.476-0.033c2.222,0,4.562,0.216,7.368,0.68
		c1.027,0.168,2.046,0.356,3.089,0.566c0.805,0.15,1.609,0.306,2.42,0.463l1.957,0.376l0.37-1.965
		c0.17,0.032,0.27,0.101,0.273,0.104c-0.177-0.124-0.78-0.747-1.18-1.159c-0.744-0.768-1.218-1.251-1.548-1.466
		c-0.642-0.425-1.441-0.798-2.213-1.16c-0.438-0.205-0.869-0.406-1.249-0.609c-3.045-1.615-6.076-3.078-9.675-3.235
		c-0.196-0.009-0.392-0.013-0.586-0.013c-3.556,0-7.085,1.338-11.446,4.339c-1.702,1.176-3.352,2.473-4.947,3.728l-1.029,0.807
		l1.23,1.576C339.886,159.748,347.677,159.396,351.862,159.206z"/>
	<path style="fill:#79B4ED;" d="M320.308,75.23l5.938,3.463c4.603,2.687,9.31,5.364,13.861,7.954l2.357,1.341l0.836,0.484
		c2.185,1.275,4.906,2.863,7.534,2.863c1.642,0,3.053-0.616,4.192-1.83c1.758-1.863,2.538-4.607,3.119-7.292
		c2.554-11.672,1.081-23.671-0.343-35.275l-0.291-2.388l-0.299-2.514c-0.754-6.399-1.533-13.016-3.228-19.374l-0.991-3.721
		l-0.944,3.733c-2.592,10.251-8.258,19.978-16.841,28.912c-8.976,9.34-17.088,14.805-24.11,16.244l-2.551,0.522l2.245,1.319
		C313.96,71.533,317.134,73.381,320.308,75.23z"/>
	<path style="fill:#79B4ED;" d="M358.127,316.324l1.367-1.582l-2.09-0.071c-2.943-0.099-5.952-0.148-9.196-0.148
		c-3.702,0-7.686,0.065-12.178,0.198l-0.858,0.027l-0.105,0.853c-0.004,0.037-0.006,0.075-0.018,0.118
		c-1.122,4.501-2.283,9.156-1.52,14.622c0.536,3.813,1.674,7.526,2.773,11.116l0.75,2.464l1.053-0.51
		c0.597-0.289,1.124-0.688,1.683-1.11l0.406-0.306c0.833-0.616,1.66-0.903,2.604-0.903c0.78,0,1.576,0.197,2.346,0.387
		c0.793,0.196,1.613,0.398,2.446,0.398c0.655,0,1.243-0.123,1.794-0.375c2.713-1.234,2.609-5.265,2.517-8.82
		c-0.038-1.495-0.075-2.906,0.111-3.826C352.924,324.231,355.038,319.898,358.127,316.324z"/>
	<path style="fill:#79B4ED;" d="M333.241,158.458c0.594-0.696,1.212-1.383,1.825-2.066c1.345-1.496,2.735-3.044,3.781-4.602
		l0.186-0.276c2.045-3.017,4.16-6.137,4.285-9.979c0.165-4.678-2.799-8.27-8.345-10.114c-4.359-1.446-9.176-2.149-14.725-2.149
		c-5.054,0-10.654,0.586-17.628,1.844l0.089,1.98c8.62,0.77,15.13,2.701,19.9,5.903c5.679,3.82,8.911,10.675,8.869,18.805
		l-0.014,2.737L333.241,158.458z"/>
	<path style="fill:#79B4ED;" d="M309.625,381.795c-1.969,0.75-2.614,3.809-3.237,6.767c-0.082,0.388-0.162,0.767-0.243,1.13
		l-0.199,0.89l0.868,0.28c10.403,3.355,20.593,6.586,30.869,9.227c1.82,0.465,3.62,0.883,5.295,1.266l1.544,0.352l-0.346-1.546
		c-2.497-11.175-8.659-21.91-13.749-30.013l-1.882-2.996l0.035,3.538c0.02,1.946-0.203,3.83-0.68,5.755
		c-0.192,0.76-0.853,0.843-1.129,0.843c-0.363,0-0.729-0.134-1.006-0.371c-0.276-0.234-0.703-0.659-1.196-1.151
		c-1.159-1.157-2.604-2.597-3.897-3.388l-1.216-0.744l-0.285,1.397c-0.17,0.83-0.228,1.749-0.286,2.638
		c-0.08,1.25-0.163,2.544-0.554,3.346c-0.784,1.615-2.075,2.868-3.458,3.355c-0.656,0.234-1.016,0.28-1.415,0.28
		c-0.151,0-0.311-0.007-0.487-0.019c-0.146-0.042-0.352-0.097-0.592-0.157c-0.481-0.122-1.608-0.406-1.855-0.527
		c0.104,0.051,0.386,0.272,0.438,0.682l-0.794,0.082L309.625,381.795z"/>
	<path style="fill:#79B4ED;" d="M299.79,71.034c4.15,9.134,3.402,21.027,2.375,31.46c-0.683,7.034-1.984,12.994-3.979,18.22
		l-0.309,0.816c-0.755,2.001-1.61,4.268-2.762,6.26l-1.381,2.387l2.59-0.948c5.956-2.179,11.995-4.285,17.95-6.26
		c0.843-0.279,1.794-0.545,2.803-0.828c3.906-1.092,8.768-2.452,11.032-5.823c3.012-4.474,1.541-10.575-0.224-14.906
		c-3.067-7.531-8.836-13.597-14.414-19.462c-0.627-0.659-1.249-1.313-1.864-1.966c-2.875-3.05-6.028-6.163-10.224-10.094
		L299.79,71.034z"/>
	<path style="fill:#79B4ED;" d="M251.198,32.345l-0.051,0.066c1.491,1.156,3.054,2.252,4.564,3.312
		c1.527,1.071,3.106,2.179,4.593,3.336c5.927,4.622,9.478,9.121,11.178,14.161l0.263,0.78l0.816-0.109
		c8.735-1.165,17.326-1.755,25.535-1.755c2.495,0,4.999,0.055,7.439,0.163l2.229,0.099l-2.374-2.918
		c-2.533-3.128-5.153-6.363-8.421-9.15c-4.481-3.831-9.771-7.375-15.722-10.533c-5.679-3.006-11.982-5.682-19.84-8.421
		c-1.505-0.522-3.07-0.967-4.728-1.438c-1.507-0.428-3.065-0.871-4.562-1.375l-3.102-1.044l1.988,2.599
		c0.873,1.141,1.559,2.128,2.16,3.104c0.131,0.215,0.139,0.534,0.02,0.813c-0.05,0.119-0.201,0.402-0.502,0.467
		c-0.163,0.034-0.549,0.091-1.053,0.166c-4.964,0.744-5.753,1.059-6.061,1.833c-0.27,0.678,0.227,1.27,0.413,1.493
		C246.019,28.035,249.487,31.375,251.198,32.345z"/>
	<path style="fill:#79B4ED;" d="M290.246,317.015l-1.581,0.056c-4.84,0.171-9.206,0.254-13.348,0.254
		c-2.034,0-4.066-0.02-6.096-0.064l-0.785-0.017l-0.202,0.759c-2.139,8.014-1.455,16.589,2.151,26.986l1.073,3.097l0.838-3.169
		c0.441-1.671,1.132-2.626,2.105-2.916c0.217-0.064,0.42-0.095,0.622-0.095c0.778,0,1.495,0.475,2.402,1.076l0.473,0.311
		c2.692,1.729,5.234,3.363,8.672,4.396c0.467,0.141,0.853,0.278,1.174,0.393c0.59,0.21,1.017,0.361,1.441,0.361
		c1.454,0,1.62-1.471,1.767-2.765c0.186-1.585-0.263-3.425-0.658-5.048c-0.124-0.509-0.244-0.997-0.334-1.445
		c-0.131-0.651-0.268-1.301-0.405-1.951c-0.488-2.315-0.992-4.709-1.199-7.076c-0.283-3.348-0.294-8.093,1.262-11.689
		L290.246,317.015z"/>
	<path style="fill:#79B4ED;" d="M140.173,352.124c-11.259-1.865-22.147-5.065-32.363-9.511l-1.113,1.618
		c18.104,18.436,43.177,20.8,62.999,20.8c7.786,0,15.722-0.416,23.182-0.842c6.519-0.373,13.498-0.717,20.374-0.717
		c10.423,0,19.036,0.771,27.108,2.428c6.893,1.407,13.322,3.521,19.109,6.282c4.459,2.135,9.488,4.771,12.988,8.139l0.192,0.185
		l3.997,0.993l-2.417-2.503c-16.71-17.302-43.155-26.831-74.463-26.831c-3.409,0-6.88,0.117-10.314,0.348l-1.721,0.116
		c-8.768,0.595-17.049,1.156-25.484,1.156C154.146,353.785,146.925,353.241,140.173,352.124z"/>
	<path style="fill:#79B4ED;" d="M74.834,400.76l1.603,0.005c17.427,0,33.096-1.761,47.901-5.383
		c11.33-2.776,22.516-6.531,33.333-10.162c5.326-1.788,10.833-3.637,16.289-5.345c15.4-4.832,31.366-7.333,48.809-7.644
		c1.286-0.024,2.637-0.061,4.036-0.1c2.675-0.074,5.44-0.15,8.313-0.15c5.148,0,12.754,0.222,19.333,2.14l0.646-1.891
		c-0.129-0.05-0.255-0.106-0.381-0.161c-0.149-0.065-0.298-0.129-0.449-0.188c-6.684-2.634-14.21-4.502-22.37-5.552
		c-5.617-0.719-11.772-1.069-18.819-1.069c-6.279,0-12.66,0.271-18.831,0.534c-4.838,0.206-9.841,0.418-14.743,0.497
		c-1.495,0.025-3.006,0.038-4.534,0.038c-17.058,0-41.791-1.484-59.562-14.319l-1.322,1.488c2.343,2.546,4.104,4.537,5.708,6.454
		c4.571,5.478,4.2,11.53-1.046,17.039c-6.64,6.962-16.598,11.89-24.53,15.405c-6.205,2.746-12.797,4.895-19.591,6.388L74.834,400.76
		z"/>
</g>
<path style="fill:#93CFFF;" d="M210.273,149.145l-0.889,1.534c-3.666,6.33-6.479,13.367-8.388,20.92l-0.033-0.038l-0.448,1.934
	c-1.334,5.761-2.115,11.807-2.337,17.98l-0.033-0.026l-0.035,2.015c-0.071,4.148,0.115,8.289,0.556,12.302
	c0.265,2.53,0.661,5.096,1.19,7.798l-0.055-0.042l0.604,2.67c1.76,7.786,4.534,15.075,8.233,21.69l-0.034-0.007l0.355,0.592
	c0.015,0.026,0.029,0.054,0.044,0.081l0.249,0.434l0.016,0.002l0.485,0.81c4.538,7.579,10.356,14.249,17.291,19.831l-0.038,0.011
	l1.559,1.189c2.813,2.146,5.753,4.105,8.737,5.822c3.159,1.818,6.436,3.476,9.737,4.929l0.23,0.101l0.251-0.02
	c0.688-0.054,1.362-0.15,2.037-0.243l-0.167,1.16c10.074,4.149,21.228,6.887,34.097,8.369l0.132,0.015l-0.018,0.028l1.596,0.168
	c7.354,0.774,15.443,1.173,25.457,1.255l0.232,0.002l-0.001,0.003l3.518,0.009c4.813,0,9.736-0.059,13.972-0.114l0.078-0.001
	l-0.001,0.002l1.643-0.021c4.313-0.055,8.897-0.109,13.383-0.109c1.806,0,3.61,0.009,5.414,0.029l0.704,0.008l0.001-0.002
	l0.931,0.014c6.573,0.099,12.381,0.359,17.754,0.796l0.875,0.071v-0.001l0.667,0.059c6.311,0.561,12.07,1.376,17.611,2.494
	l0.886,0.179l0.001-0.003l0.674,0.143c2.268,0.479,4.482,1.013,6.584,1.586l0.109,0.023c1.773,0.275,3.656,0.603,5.595,0.974
	l0.353,0.068l0.847,0.171c4.377,0.883,8.801,1.999,13.148,3.316l0.539,0.164l0.001-0.001l0.62,0.195
	c4.892,1.539,9.638,3.345,14.107,5.367l0.014,0.006l1.248,0.579c4.01,1.862,7.929,3.995,11.647,6.339l0.376,0.238l0.015-0.004
	l0.886,0.578c4.329,2.825,8.319,5.951,11.86,9.29l0.079,0.075l0.742,0.717c3.629,3.505,6.813,7.268,9.465,11.178l0.285,0.43
	l0.574,0.893c2.213,3.444,4.159,7.205,5.786,11.179l0.357,0.871h0.001l0.007,0.019c1.815,4.576,3.221,9.444,4.178,14.468
	l0.069,0.363l-0.008,0.002l0.165,0.958c0.747,4.326,1.156,8.765,1.216,13.194l0.01,0.729v0.347c0,4.192-0.339,8.439-1.008,12.622
	l-0.094,0.588l-0.092,0.526c-0.855,4.832-2.178,9.499-3.934,13.871l-0.214,0.533l-0.026,0.003l-0.198,0.554l-0.148,0.37h0.003
	c-1.747,4.036-3.967,7.917-6.605,11.534l-0.287,0.393l-0.002-0.001l-0.467,0.608c-1.471,1.915-2.898,3.604-4.361,5.16
	c-1.256,1.322-5.649,5.719-6.411,6.129c0.005-0.002,0.13-0.069,0.331-0.069l-0.033,0.973l-0.126,0.148
	c-0.022-0.024-0.04-0.047-0.061-0.071l-0.629-0.68l-0.726,0.575c-4.13,3.268-8.715,6.178-13.63,8.65l-0.186,0.094l-0.804,0.391
	c-5.581,2.723-11.536,4.871-17.7,6.388l-0.115,0.028l-0.002-0.009l-0.964,0.228c-1.627,0.386-3.144,0.703-4.635,0.968
	c-2.282,0.405-4.664,0.738-7.08,0.99l-0.288,0.03l-0.868,0.078c-2.791,0.252-5.653,0.379-8.505,0.379
	c-3.069,0-6.206-0.148-9.322-0.439l-0.901-0.084v0.001l-0.502-0.055c-4.308-0.473-8.543-1.222-12.565-2.22l-0.183-0.05
	c-0.273-0.075-0.541-0.148-0.808-0.216l-0.11-0.027l-0.916-0.256c-3.802-1.061-7.752-2.48-12.073-4.335l-0.844-0.363l-0.419-0.184
	c-4.058-1.781-8.117-3.771-12.044-5.696l-2.359-1.156l-0.001,0.002l-0.049-0.024c-3.466-1.688-6.39-3.084-9.394-4.406
	c-0.794-0.351-1.602-0.695-2.405-1.038l-1.561-0.666l-0.002,0.009l-0.028-0.012c-3.757-1.582-7.793-3.174-12.34-4.866l-0.324-0.121
	l0.002-0.006l-0.894-0.326c-3.453-1.26-7.105-2.538-10.854-3.798l-0.32-0.107l0.002-0.007l-0.915-0.306
	c-4.476-1.496-9.134-2.996-14.237-4.586c-6.963-2.177-13.154-3.75-18.928-4.809l-0.442,1.949c10.688,2.9,21.602,6.674,32.434,11.217
	l0.611,0.255l0,0l0.664,0.283c3.487,1.486,6.997,3.066,10.433,4.694l1.139,0.539l0.001-0.005l0.198,0.094
	c2.603,1.243,4.995,2.429,7.312,3.626c0.848,0.438,1.688,0.885,2.53,1.332c0.657,0.35,1.315,0.699,1.977,1.045l0.697,0.364
	l-0.001,0.008l0.648,0.344c1.97,1.048,3.933,2.101,5.892,3.152c1.95,1.046,3.897,2.091,5.848,3.128l0.378,0.201l-0.002,0.004
	l0.786,0.416c4.81,2.544,8.792,4.547,12.532,6.302l0.497,0.233l-0.004,0.009l0.876,0.401c4.016,1.839,7.695,3.355,11.247,4.634
	l-0.001,0.001l0.092,0.032l0.6,0.216l0.006-0.007l0.726,0.25c4.802,1.655,9.237,2.858,13.56,3.677l0.25,0.048l-0.007,0.012
	l1.437,0.244c4.475,0.76,8.974,1.145,13.374,1.145c0.596,0,1.194-0.007,1.798-0.021c1.162-0.029,2.314-0.097,3.564-0.171
	l0.059-0.004l-0.009,0.023l1.568-0.121c4.478-0.344,9.049-0.992,13.589-1.926l-0.001,0.007l0.419-0.093l0.216-0.044l0.001-0.003
	l0.904-0.2c5.66-1.251,11.526-2.991,17.445-5.154l-0.023,0.049l2.257-0.858c5.387-2.048,10.975-4.479,17.08-7.434l0.635-0.308
	l-0.076-0.701c-0.024-0.221-0.04-0.441-0.059-0.661l0.852,0.001l0.793,0.012c-0.004,0.16-0.063,0.269-0.084,0.298
	c0.178-0.227,0.902-0.62,2.154-1.167c0.207-0.09,0.371-0.163,0.471-0.212c0.819-0.414,1.633-0.813,2.438-1.21
	c4-1.966,7.777-3.823,11.317-6.867c0.773-0.671,1.5-1.347,2.222-2.069l0.286-0.286l0.011,0.028l1.078-1.158
	c2.447-2.63,4.619-5.567,6.454-8.732c1.075-1.867,2.097-3.872,3.036-5.958l0.276-0.614l-0.009-0.01l0.312-0.739
	c2.168-5.146,3.795-10.698,4.833-16.502l0.021-0.121l0.013,0.008l0.247-1.49c0.183-1.103,0.345-2.214,0.486-3.322
	c0.516-4.192,0.797-8.557,0.838-12.973l0.002-0.261l0.025,0.008l-0.008-1.372c-0.029-4.939-0.379-9.898-1.038-14.739l-0.088-0.645
	l-0.01-0.003l-0.166-1.07c-0.868-5.61-2.146-11.018-3.798-16.075l0.025,0.004l-0.561-1.614c-1.21-3.488-2.611-6.863-4.167-10.036
	c-0.455-0.919-0.92-1.819-1.396-2.708l-0.502-0.938l-0.02,0.013l-0.188-0.334c-3.167-5.63-7.089-11.069-11.656-16.167l-0.436-0.487
	l0.002-0.002l-0.116-0.125l-0.257-0.287l-0.004,0.005l-0.209-0.226c-4.095-4.425-8.723-8.67-13.758-12.618l-0.491-0.385l0.001-0.001
	l-0.08-0.061l-0.508-0.398l-0.003,0.008l-0.159-0.121c-2.454-1.873-4.71-3.5-6.899-4.975c-2.2-1.48-4.56-2.975-7.213-4.568
	l-0.783-0.47v-0.002l-0.184-0.108l-0.238-0.143v0.002l-0.242-0.142c-4.288-2.529-8.911-5.031-14.548-7.872l-1.258-0.634
	l-0.001,0.007c-0.345-0.177-0.731-0.374-0.877-0.447c-2.571-1.275-5.272-2.427-8.132-3.646c-2.327-0.993-4.734-2.02-7.046-3.112
	l-0.757-0.358l0.005-0.024l-0.693-0.341c-1.248-0.614-2.435-1.241-3.527-1.862l-0.104-0.06l-0.238-0.068
	c-6.761-1.929-13.752-3.923-20.784-5.412l-3.154-0.667l0.053,0.055c-3.273-0.62-6.284-1.08-9.136-1.383
	c-2.207-0.243-4.634-0.444-7.419-0.614l-0.652-0.04l-0.001-0.001l-0.233-0.013l-1.097-0.067l0.007,0.01
	c-5.672-0.293-11.244-0.354-15.981-0.371l-2.143-0.008l0.007,0.008l-5.579,0.003c-2.493,0-4.987-0.006-7.483-0.034
	c-1.684-0.01-3.378-0.05-5.072-0.089l-0.77-0.018l-0.403-0.012c-5.845-0.176-10.999-0.496-15.76-0.976l-0.929-0.094l-0.004-0.007
	l-0.528-0.059c-5.958-0.658-11.271-1.566-16.243-2.777l-1.086-0.265l-0.201-0.052c-4.583-1.183-8.762-2.571-12.774-4.245
	l-0.627-0.262v-0.001l-0.848-0.371c-1.229-0.537-2.16-0.966-3.022-1.392c-4.734-2.319-9.169-5.217-13.183-8.615l-0.822-0.695
	c-2.782-2.437-5.317-5.094-7.53-7.9l-0.651-0.826l-0.262-0.352c-1.975-2.652-3.696-5.447-5.116-8.308l-0.247-0.497l0.002-0.001
	l-0.384-0.828c-2.141-4.614-3.59-9.433-4.311-14.337c-0.023-0.144-0.038-0.285-0.054-0.424l-0.17-1.364l-0.048-0.475
	c-0.319-3.155-0.346-6.373-0.079-9.566l0.068-0.807l0.07-0.627c0.445-4.022,1.337-7.958,2.649-11.699l0.409-1.167l0.091-0.237
	c1.052-2.744,2.304-5.374,3.722-7.816l0.364-0.628l0.184-0.267c0.057-0.082,0.127-0.195,0.177-0.346l0.016-0.047l0.078-0.038
	l0.155-0.247c2.555-4.093,5.582-7.765,8.999-10.914l0.497-0.458l0.671-0.583c0.6-0.521,1.199-1.032,1.824-1.53
	c2.395-1.894,5.027-3.654,7.822-5.234l0.528-0.298l0.693-0.371c3.486-1.868,7.253-3.463,11.195-4.74l0.49-0.159l0.003,0.007
	l0.906-0.271c6.689-2.005,13.967-3.179,21.633-3.489l0.111-1.988c-3.325-0.508-6.929-0.765-10.712-0.765
	c-2.313,0-4.734,0.096-7.263,0.289c-0.185,0-0.247-0.066-0.271-0.09c-0.097-0.101-0.148-0.306-0.138-0.524
	c0.03-0.494,0.776-0.948,1.436-1.349c0.275-0.168,0.539-0.33,0.764-0.493c2.314-1.678,3.897-3.436,5.115-5.664l0.083,0.221
	l0.953-2.396c0.373-0.936,0.729-1.933,1.093-3.053c2.128-6.587,3.568-11.861,4.174-17.786l0.13-1.273l-1.267,0.182
	c-3.059,0.439-6.137,0.948-9.154,1.513v-0.006l-1.162,0.221c-3.728,0.71-7.594,1.577-11.493,2.575l0.002-0.02l-1.406,0.371
	c-5.046,1.328-9.949,2.871-14.594,4.579l0.002-0.015l-1.525,0.577c-5.619,2.125-10.967,4.576-15.919,7.279l-0.001-0.017
	l-0.582,0.329l-0.395,0.218v0.005l-0.392,0.221c-5.307,2.998-10.202,6.348-14.591,9.948v-0.04l-0.578,0.499
	c-0.023,0.019-0.048,0.037-0.07,0.056l-0.363,0.304v0.015l-0.639,0.552c-2.673,2.308-5.034,4.578-7.221,6.939
	c-3.139,3.4-5.984,7.193-8.473,11.269L210.273,149.145z"/>
<g>
	<path style="fill:#79B4ED;" d="M206.418,415.814c5.811-3.076,12.095-5.275,17.525-7.094c0.977-0.322,1.966-0.675,2.953-1.028
		l-0.521-1.924c-2.896,0.545-5.421,1.114-7.722,1.739c-9.168,2.535-18.012,6.185-27.036,11.158
		c-6.521,3.591-12.888,7.648-19.044,11.572c-7.016,4.471-14.27,9.093-21.747,13.019c-13.491,7.07-27.564,9.976-42.466,13.052
		l-2.344,0.485c-27.897,5.78-51.819,21.766-67.357,45.013l1.475,1.321c8.582-7.222,18.356-11.505,29.051-12.731
		c1.593-0.184,3.166-0.276,4.675-0.276c5.764,0,11.035,1.365,15.669,4.058c2.112,1.228,4.12,2.691,6.246,4.24
		c4.726,3.443,9.612,7.004,15.659,7.719c0.583,0.068,1.163,0.103,1.726,0.103c6.724,0,10.704-4.789,14.553-9.42
		c0.943-1.135,1.919-2.309,2.911-3.376c4.048-4.363,9.135-7.218,14.711-8.257c1.731-0.324,3.499-0.488,5.253-0.488
		c3.809,0,7.583,0.788,10.914,2.278c2.947,1.32,5.362,3.286,7.336,5.036l2.53,2.243l-0.903-3.258
		c-5.466-19.707,2.686-42.251,13.188-55.852C189.887,427.072,197.759,420.389,206.418,415.814z"/>
	<path style="fill:#79B4ED;" d="M174.375,488.612c0.566-5.519,2.827-10.437,6.539-14.222c4.719-4.814,11.286-7.466,18.491-7.466
		c1.631,0,3.282,0.139,4.909,0.413l0.331-1.973c0.117,0.02,0.191,0.078,0.208,0.097c-1.388-1.572,0.314-17.092,0.964-20.028
		c1.461-6.716,4.314-13.313,8.249-19.079c4.382-6.416,10.037-11.724,16.808-15.776l-0.813-1.812
		c-1.342,0.42-2.689,0.829-4.037,1.237c-5.428,1.646-11.041,3.347-16.235,5.835c-8.985,4.286-17.075,10.634-23.393,18.359
		c-7.221,8.823-12.024,19.198-13.892,30.004c-1.521,8.839-0.956,16.96-0.119,24.421L174.375,488.612z"/>
	<path style="fill:#79B4ED;" d="M51.636,477.064c-4.525,5.801-9.205,11.8-12.188,18.5l1.732,0.98
		c6.697-9.56,14.902-17.709,24.386-24.219c11.169-7.657,24.594-13.066,41.042-16.536c2.063-0.438,4.134-0.852,6.205-1.267
		c6.703-1.343,13.635-2.731,20.278-4.901c7.114-2.325,14.511-5.81,23.276-10.968c4.888-2.87,9.731-5.995,14.416-9.016
		c8.996-5.801,18.297-11.8,28.231-16.201c13.892-6.133,26.507-9.743,37.495-10.729l-0.001-1.992
		c-6.451-0.573-13.402-1.104-20.518-1.104c-2.342,0-4.664,0.058-6.901,0.171c-12.397,0.623-24.58,2.467-36.211,5.48
		c-24.019,6.216-46.154,17.67-64.016,33.124c-0.164,0.143-0.331,0.212-0.512,0.212c-0.339,0-0.701-0.252-0.826-0.573
		c-0.058-0.15-0.088-0.355,0.212-0.629c1.23-1.165,2.564-2.373,4.094-3.704c14.249-12.885,29.61-26.39,46.938-37.449
		c9.333-5.962,18.67-10.773,27.754-14.301l-0.631-1.895c-0.625,0.175-1.249,0.358-1.873,0.563
		c-7.353,2.409-14.247,5.739-20.603,8.979c-11.972,6.098-23.868,12.79-35.373,19.263l-2.484,1.397
		c-11.83,6.664-25.239,14.217-38.708,20.987c-1.481,0.745-2.989,1.526-4.521,2.32c-7.612,3.944-15.484,8.023-23.63,9.592
		l-2.886,0.556l2.626,1.32c2.205,1.108,3.761,2.524,4.754,4.33c2.893,5.244-0.133,11.341-3.092,16.066
		C57.595,469.424,54.565,473.308,51.636,477.064z"/>
	<path style="fill:#79B4ED;" d="M176.371,318.828c1.339-3.737,2.99-5.632,4.909-5.632l0.149,0.003
		c1.585,0.081,2.524,1.233,3.777,2.984c1.845,2.571,3.558,5.31,5.215,7.957l0.883,1.411l0.831-1.441
		c1.179-2.044,2.34-4.042,3.581-6.017c0.176-0.28,0.411-0.423,0.697-0.423c0.238,0,0.489,0.1,0.709,0.282
		c0.279,0.23,0.584,0.595,0.905,0.98c0.485,0.581,0.986,1.182,1.588,1.554c1.023,0.646,1.884,0.96,2.633,0.96
		c0.63,0,1.188-0.225,1.612-0.651c0.942-0.946,1.015-2.658,1.009-4.184c0-4.525-0.558-9.238-1.708-14.427l-0.079-0.585l-0.425-0.244
		c-10.286-5.909-19.477-13.541-27.319-22.684l-1.462-1.706l-0.289,2.228c-1.834,14.168-1.553,27.086,0.86,39.49l0.695,3.574
		L176.371,318.828z"/>
	<path style="fill:#79B4ED;" d="M167.842,168.409c-0.914,2.81-1.828,5.618-2.76,8.415c-6.063,18.188-13.717,34.492-23.397,49.842
		c-5.079,8.04-10.169,16.079-15.259,24.097c-1.42,2.229-2.838,4.601-4.209,6.896c-1.567,2.623-3.188,5.336-4.866,7.929l1.396,1.374
		c6.896-4.605,15.276-7.142,23.596-7.142c2.876,0,5.743,0.299,8.521,0.888l1.446,0.307l-0.253-1.455
		c-2.986-17.208,1.395-36.337,13.024-56.856l0.067-0.12l0.033-0.134c2.156-8.73,6.621-17.384,13.649-26.457
		c9.109-11.747,14.595-22.442,17.788-34.681c0.72-2.768,1.385-5.749,2.09-8.905c2.787-12.486,5.946-26.637,14.149-35.59
		l-1.335-1.477c-11.318,8.444-20.11,18.505-26.878,30.758C177.254,139.474,172.469,154.183,167.842,168.409z"/>
	<path style="fill:#79B4ED;" d="M125.706,248.064c1.671-2.643,3.348-5.284,5.023-7.925c3.678-5.793,7.48-11.784,11.169-17.71
		c11.507-18.438,18.595-37.81,24.012-54.327c5.333-16.246,10.848-33.044,20.04-47.907c3.005-4.867,6.22-9.292,9.557-13.151
		l-1.428-1.396c-10.707,9.675-19.704,21.565-28.404,33.063c-5.43,7.175-11.045,14.594-16.976,21.33
		c-10.43,11.86-22.229,23.3-35.069,34.001c-6.141,5.107-12.525,10.051-18.975,14.698c-0.999,0.72-2.007,1.456-3.022,2.198
		c-3.771,2.754-7.672,5.602-11.684,8.05l-3.103,1.893l4.115-0.042c7.084,0,16.732,1.672,22.467,9.637l0.064,0.089l0.082,0.073
		c5.818,5.188,8.08,14.317,8.782,18.001c0.902,4.706,1.074,9.825,0.526,15.648l1.854,0.609c2.018-3.355,4.254-6.692,6.418-9.918
		C122.679,252.704,124.254,250.354,125.706,248.064z"/>
	<path style="fill:#79B4ED;" d="M160.341,115.869c-11.642,6.887-23.326,15.354-36.773,26.645l-3.889,3.273
		C101.41,161.186,82.521,177.11,59.7,184.316l0.166,1.944c8.28,1.126,13.465,4.245,16.314,9.814
		c2.895,5.661,3.032,12.251,0.409,19.588l-1.017,2.842l2.513-1.673c1.992-1.328,4.064-2.636,6.068-3.901
		c2.896-1.829,5.89-3.719,8.724-5.715c7.031-4.964,13.936-10.28,20.525-15.801c13.723-11.514,25.979-23.565,36.429-35.817
		c5.212-6.116,10.195-12.827,15.015-19.318c9.438-12.711,19.196-25.855,31.389-35.6l-1.019-1.7c-1.868,0.803-3.792,1.58-5.652,2.332
		c-3.045,1.23-6.194,2.503-9.21,3.933C173.506,108.478,166.771,112.053,160.341,115.869z"/>
	<path style="fill:#79B4ED;" d="M130.406,39.758c0.783,2.042,0.678,3.951-0.314,5.823c-0.21,0.386-0.545,0.753-0.898,1.143
		c-0.424,0.466-0.862,0.949-1.177,1.548c-1.591,3.004-1.184,5.657-0.752,8.464c0.081,0.525,0.163,1.061,0.233,1.61
		c0.135,1.057,0.286,2.116,0.438,3.177c0.478,3.339,0.972,6.792,0.896,10.241l-0.102,0.925l0.759,0.257
		c9.97,3.388,20.001,5.106,29.815,5.106l0.735-0.003c8.493-0.078,16.426-1.586,25.914-3.551l2.476-0.512l-2.157-1.32
		c-10.262-6.279-20.698-15.082-31.906-26.915c-7.38-7.783-12.93-14.539-17.466-21.262l-0.743-1.101l-0.853,1.018
		c-0.318,0.379-0.675,0.713-1.06,0.993c-1.11,0.806-2.471,0.848-3.91,0.892c-1.43,0.043-2.907,0.089-4.219,0.898
		c-0.776,0.48-1.268,1.176-1.42,2.013c-0.423,2.328,1.828,5.242,3.813,7.813C129.335,38.087,130.191,39.196,130.406,39.758z"/>
	<path style="fill:#79B4ED;" d="M73.301,429.035c-1.106,0.71-2.151,1.381-3.115,2.057c-1.682,1.179-3.36,2.361-5.039,3.542
		c-3.032,2.134-6.063,4.268-9.107,6.385l0.8,1.794c10.886-2.551,21.252-8.113,31.277-13.492c1.979-1.061,3.932-2.11,5.856-3.115
		c10.545-5.504,21.086-11.424,31.279-17.148c2.172-1.22,9.544-5.356,9.544-5.356c11.519-6.47,23.429-13.16,35.563-18.809
		c0.373-0.177,0.757-0.354,1.13-0.521l-0.719-1.863c-1.776,0.581-3.403,1.136-4.975,1.698l-0.797,0.283
		c-23.8,8.449-50.776,18.025-76.877,18.024c-4.204,0-8.33-0.251-12.266-0.747l-3.735-0.471l3.01,2.262
		c5.485,4.124,11.348,10.359,8.12,16.645C81.385,423.845,77.09,426.602,73.301,429.035z"/>
	<path style="fill:#79B4ED;" d="M60.081,134.978c1.665-0.406,3.32-0.81,4.959-1.217c7.63-1.892,15.424-3.682,22.961-5.412
		c5.721-1.313,11.637-2.672,17.441-4.066c20.281-4.854,40.389-11.182,59.835-17.302l3.232-1.017l-0.33-1.954
		c-0.502,0.015-1.001,0.022-1.501,0.022c0,0-0.001,0-0.002,0c-9.087,0-18.395-2.521-27.665-7.494
		c-3.425-1.835-6.709-4.072-9.886-6.235c-3.446-2.348-7.01-4.775-10.808-6.732c-6.041-3.111-12.566-4.085-18.875-5.027
		c-1.888-0.282-3.84-0.574-5.758-0.918c-13.911-2.485-25.33-9.768-38.195-19.94c-3.48-2.752-6.926-5.38-10.238-7.812l-1.454,1.312
		c9.291,15.844,7.719,37.093,6.611,45.494c-2.177,16.588-8.855,32.793-18.325,44.459l-2.34,2.883l3.471-1.318
		C41.851,139.427,51.118,137.165,60.081,134.978z"/>
	<path style="fill:#79B4ED;" d="M127.435,137.11c12.537-10.042,24.101-18.06,35.35-24.511l3.81-2.171l-0.857-1.801
		c-16.146,6.268-34.471,11.836-57.666,17.521c-6.794,1.669-13.727,3.262-20.432,4.803c-6.869,1.578-13.972,3.21-20.938,4.927
		c-7.214,1.775-14.41,3.996-21.37,6.142c-4.866,1.502-9.899,3.054-14.879,4.436l0.16,1.958c0.674,0.073,1.348,0.139,2.023,0.205
		c3.486,0.343,7.092,0.698,10.481,1.966c4.457,1.684,7.992,4.058,10.508,7.058c6.482,7.711,4.396,17.421,1.5,25.903l-0.678,1.985
		l1.969-0.723c23.087-8.478,42.17-24.119,60.625-39.245C120.44,142.778,123.956,139.896,127.435,137.11z"/>
</g>
<g>
	<path style="fill:#231F20;" d="M481.882,140.956c-0.005-0.029-0.017-0.051-0.023-0.079c-0.069-0.379-0.161-0.737-0.276-1.048
		c-0.889-2.41-3.259-3.73-5.771-3.257c-0.619,0.117-1.23,0.747-1.358,1.358c-0.558,2.674-0.45,6.064,2.568,7.195
		c0.014,0.006,0.029,0.008,0.043,0.013c0.679,0.609,1.539,0.962,2.552,0.81c2.151-0.323,2.584-2.864,2.28-4.861
		C481.891,141.043,481.89,141,481.882,140.956z"/>
	<path style="fill:#231F20;" d="M368.615,86.2c0.187,1.949,0.776,3.766,1.695,5.492c1.89,3.549,5.241,6.951,9.23,7.94
		c0.246,0.061,0.528,0.064,0.798,0.013c1.871,3.558,4.866,6.188,9.597,6.403c0.316,0.014,0.592-0.032,0.828-0.125
		c2.029,1.744,4.583,2.995,7.176,3.614c0.548,0.131,1.093,0.207,1.637,0.262c-0.967,3.11-1.494,6.433,0.085,9.464
		c1.573,3.021,4.466,3.938,7.68,3.251c0.513-0.11,0.412-0.787,0-0.942c-2.595-0.979-4.976-1.766-5.882-4.648
		c-0.464-1.473-0.418-3.057-0.227-4.621c1.076,3.3,3.254,5.903,7.32,6.616c2.984,0.523,7.577,0.109,10.223-2.046
		c-0.017,0.805-0.146,1.599-0.511,2.391c-0.315,0.684-0.763,1.265-1.286,1.8c-0.46,0.47-0.889,1.156-1.364,1.554
		c-0.452,0.379-0.093,1.232,0.492,1.188c1.139-0.086,1.808-0.04,2.76-0.853c0.88-0.752,1.525-1.78,1.938-2.851
		c0.347-0.901,0.534-1.893,0.513-2.865c0.259,0.545,0.49,1.104,0.677,1.68c0.57,1.754,3.135,1.041,2.755-0.76
		c-1.249-5.918-5.019-10.458-10.834-12.436c-3.705-1.261-7.155-0.503-10.952-0.494c-6.073,0.014-13.145-2.744-15.652-8.849
		c-0.145-0.352-0.618-0.299-0.659,0.089c-0.196,1.854,0.128,3.566,0.809,5.112c-5.956-2.217-7.92-10.164-8.247-15.879
		c-0.065-1.141-1.809-1.16-1.789,0c0.049,2.876,0.352,6.235,1.187,9.387c-1.06-0.596-2.105-1.101-2.567-1.51
		c-4.61-4.086-4.908-9.282-6.092-14.88c-0.109-0.514-0.97-0.408-0.927,0.126C369.225,81.318,368.373,83.684,368.615,86.2z
		 M410.608,109.499c0.181,0.014,0.358,0.042,0.537,0.064c-0.042,1.297-0.179,2.649,0.032,3.896c0.254,1.496,2.314,1.186,2.732,0
		c0.327-0.928,0.292-2.082,0.112-3.17c1.335,0.52,2.572,1.26,3.664,2.186c-0.901,0.919-1.673,1.843-2.972,2.369
		c-1.835,0.744-4.347,0.838-6.275,0.378c-2.719-0.648-3.925-2.945-4.702-5.409C406.015,109.64,408.294,109.322,410.608,109.499z"/>
	<path style="fill:#231F20;" d="M473.531,135.714c2.172-0.722,4.444-0.485,6.477,0.573c1.764,0.918,2.69,2.639,4.344,3.654
		c0.593,0.364,1.248-0.119,1.296-0.744c0.212-2.749-2.703-4.667-4.975-5.558c-2.617-1.027-5.354-0.852-7.915,0.243
		C471.718,134.327,472.46,136.07,473.531,135.714z"/>
	<path style="fill:#231F20;" d="M501.221,355.253c-4.062-31.8-22.388-56.602-48.863-73.848
		c-8.461-5.511-17.417-10.207-26.587-14.415c-6.176-2.834-13.151-6.542-20.073-8.325c-15.196-6.453-32.847-8.351-48.862-8.975
		c-20.831-0.812-42.015,0.929-62.496-3.833c-17.531-4.076-34.622-13.103-43.41-29.469c-9.679-18.026-6.959-40.882,6.553-56.213
		c14.157-16.063,36.759-20.49,57.17-21.941c0.055-0.004,0.092-0.029,0.143-0.037c0.762,0.303,1.517,0.621,2.255,0.973
		c10.628,5.063,12.049,17.143,9.051,27.436c-0.562,1.929,1.736,3.822,3.488,2.682c6.126-3.987,13.164-6.353,20.416-7.15
		c7.165-0.788,13.586-0.915,20.363,1.754c7.106,2.8,12.778,8.53,20.185,10.734c10.744,3.198,20.363,8.787,31.198,11.851
		c11.483,3.247,23.155,6.702,34.98,8.468c8.834,1.319,15.96-0.153,21.02-7.791c0.594-0.896,0.15-2.116-0.695-2.652
		c-0.095-0.06-0.194-0.112-0.289-0.172c1.422-5.959,1.164-11.569-0.539-17.462c-0.373-1.29-2.351-1.698-3.008-0.393
		c-1.368,2.713-2.728,5.43-4.079,8.15c-0.524-2.55-1.302-5.046-2.292-7.54c-0.073-0.184-0.179-0.345-0.298-0.493
		c0.355-0.069,0.697-0.208,0.974-0.434c4.485-3.655,8.175-7.367,10.836-12.458c1.945,0.585,3.949,0.835,6.005,0.329
		c2.496-0.615,4.459-2.088,6.031-3.947c0.26-0.047,0.523-0.171,0.769-0.394c4.487-4.063,8.152-9.926,5.917-16.168
		c-1.978-5.524-7.827-8.373-13.166-9.645c-3.752-0.893-7.672-1.061-11.336-2.329c-4.042-1.399-6.625-4.555-10.234-6.614
		c-2.994-1.709-6.477-2.388-9.699-3.539c-5.854-2.091-8.226-4.19-9.333-10.518c-1.051-6.005-4.888-9.077-9.52-12.607
		c-7.13-5.435-12.078-12.844-15.213-21.193c-3.445-9.178-4.596-19.187-5.422-28.898c-0.654-7.681-1.109-16.002,0.134-23.796
		c0.383-1.814,0.781-3.631,1.193-5.452c0.457-1.598-2.061-2.769-2.764-1.165c-0.052,0.119-0.1,0.242-0.153,0.366
		c-1.201,2.781-2.245,5.649-3.144,8.581c-0.06,0.028-0.12,0.05-0.179,0.087c-9.202,5.697-18.441,9.66-29.467,9.726
		c-8.785,0.052-15.275-2.846-21.306-8.37c-2.125-3.692-4.532-7.215-7.441-10.441c-1.262-1.399-3.662,0.43-2.624,2.024
		c1.4,2.149,2.54,4.44,3.501,6.819c-2.089,11.75-8.101,22.193-16.113,30.96c-1.786,1.954-3.664,3.86-5.632,5.669
		c-0.027-0.114-0.063-0.227-0.116-0.335c-3.579-7.305-11.51-13.111-17.885-17.891c-6.982-5.236-14.493-9.735-22.266-13.693
		c-13.006-6.622-32.278-17.78-46.517-9.142c-1.418,0.86-1.392,2.887,0,3.754c2.74,1.704,4.922,3.84,6.778,6.358
		c-2.315,0.307-4.949,0.767-6.079,2.351c-1.902,2.665,1.131,5.452,2.856,7.082c7.534,7.114,17.58,12.084,21.839,21.909
		c-8.65,1.357-17.211,3.288-25.597,5.803c-7.184,2.154-16.029,4.351-22.678,8.525c-4.248-2.206-8.921-3.597-13.268-5.605
		c-4.911-2.269-9.658-4.894-14.235-7.776c-9.319-5.866-17.909-12.832-25.953-20.337c-7.633-7.122-14.767-14.76-21.625-22.626
		c-5.624-6.451-12.785-14.478-22.163-10.501c-1.305,0.553-1.152,2.315-0.411,3.19c3.329,3.93,6.225,8.125,8.842,12.555
		c0.676,1.144,2.912,3.913,1.838,5.452c-0.882,1.263-4.418,0.645-5.785,0.899c-4.845,0.9-7.495,4.488-5.829,9.372
		c0.953,2.793,3.319,4.434,4.747,6.892c2.605,4.481-1.043,5.488-2.44,9.142c-1.182,3.092,0.076,7.18,0.507,10.297
		c0.533,3.851,0.864,7.778,1.758,11.566c-4.827-1.884-9.523-4.122-14.044-6.667c-6.621-3.727-12.926-8.003-19.99-10.885
		c-7.965-3.249-16.413-4.845-24.7-7.021c-18.49-4.855-36.494-11.812-54.349-18.584c-2.693-1.021-3.804,3.249-1.183,4.289
		c1.032,0.428,2.064,0.855,3.096,1.28c8.112,3.485,15.569,7.747,22.741,12.528c11.161,14.01,12.224,35.512,9.367,52.418
		c-3.241,19.179-12.402,34.447-24.829,49.014c-1.494,1.751-0.079,4.346,2.239,3.846c8.606-1.855,20.906,1.162,26.868,7.882
		c7.119,8.024,3.183,19.042-0.222,27.787c-0.537,1.379,0.822,2.808,2.144,2.815c8.111,0.04,17.147,0.642,20.763,9.229
		c3.424,8.13-0.044,16.669-4.303,23.726c-1.195,1.98,0.77,4.132,2.843,3.698c11.861-2.484,25.216-1.016,31.111,11.012
		c0.223,0.454,0.564,0.741,0.954,0.902c2.123,3.622,3.834,7.373,4.608,12.061c1.568,9.489-0.085,19.084-2.091,28.367
		c-0.597,2.761,3.061,4.43,4.605,1.942c8.91-14.362,26.919-20.539,42.602-14.376c1.86,0.731,3.614-1.412,3.132-3.132
		c-1.665-5.944-2.242-11.738-2.027-17.412c1.227,3.652,2.808,7.202,4.385,10.543c0.703,1.489,1.453,2.956,2.227,4.409
		c-3.367,11.212-2.403,24.11-0.521,35.496c2.045,12.367,6.303,24.203,12.34,35.171c0.938,1.704,3.903,1.442,4.309-0.563
		c0.358-1.767,2.118-13.812,5.583-12.913c0.523,0.136,2.58,4.19,2.866,4.679c1.234,2.106,2.421,4.229,3.693,6.313
		c0.744,1.218,2.553,1.249,3.29,0c1.387-2.351,2.756-4.71,4.074-7.099c2.978,2.64,6.297,7.62,9.768,2.349
		c1.63-2.475,1.3-6.116,1.245-8.906c-0.065-3.276-0.407-6.514-0.952-9.729c1.834,0.922,3.695,1.793,5.585,2.603
		c13.14,5.631,26.79,8.536,40.68,9.869c-0.627,13.923,7.334,27.866,17.85,36.462c1.572,1.285,3.558,0.395,3.79-1.57
		c0.207-1.752-0.256-7.319,2.027-7.449c1.38-0.079,5.646,3.781,7.171,4.474c2.252,1.023,6.465,3.118,8.55,0.74
		c2.496-2.849,0.388-9.423-0.253-12.631c-0.781-3.905-1.611-7.78-1.277-11.786c0.22-2.637,1.154-5.125,1.516-7.689
		c9.163-0.393,18.315-0.988,27.392-1.486c0.187,8.345,2.722,16.528,7.211,23.588c3.293,5.179,8.475,11.665,14.339,6.145
		c1.685-1.587,0.402-1.423,2.315-0.637c0.927,0.381,1.559,1.048,2.595,1.23c2.67,0.468,5.274-1.085,6.659-3.304
		c2.018-3.232,1.068-7.29,1.319-10.876c0.456-6.53,3.598-11.882,8.006-16.525c0.043-0.045,0.071-0.093,0.109-0.138
		c1.987,0.116,3.974,0.25,5.957,0.427c4.841,0.432,9.667,1.077,14.447,1.96c-7.163,11.482-6.683,28.679-3.309,40.965
		c0.59,2.148,3.872,2.222,4.425,0c0.751-3.017,1.685-5.928,3.16-8.685c0.478-0.893,1.735-3.615,2.611-4.175
		c1.57-1.005,0.707-0.378,1.085,0.903c0.742,2.516,1.266,5.917,4.863,5.66c3.611-0.258,5.587-6.765,7.77-9.03
		c3.578-3.713,11.707-9.444,16.776-5.531c0.432,0.333,0.873,0.375,1.263,0.24c5.595,5.327,9.967,11.676,11.733,19.237
		c1.891,8.09,0.946,16.099-2.267,23.09c-0.948-5.533-4.466-10.868-8.344-14.547c-6.745-6.399-15.754-9.125-24.87-9.54
		c-1.692-0.077-2.923,2.025-1.981,3.452c1.537,2.329,3.074,4.658,4.612,6.987c0.627,0.95,2.508,2.967,3.198,4.353
		c-0.985-0.038-1.969-0.076-2.954-0.114c-2.626-0.102-5.251-0.203-7.877-0.305c-1.876-0.073-2.598,1.937-1.952,3.402
		c1.774,4.025,4.934,6.613,2.42,11.545c-1.127,2.211-3.781,4.214-5.182,6.397c-2.41,3.755-4.139,7.991-4.892,12.391
		c-7.584-0.032-15.099-0.522-22.611-1.484c-0.902-8.158-7.566-15.541-12.354-21.68c-6.368-8.164-13.193-15.961-21.962-21.613
		c-2.054-1.324-4.052,1.208-3.119,3.119c1.298,2.66,1.864,5.315,1.773,8.057c-2.025-1.931-4.422-3.769-6.607-3.162
		c-3.777,1.049-1.803,5.316-3.019,7.914c-2.118,4.525-5.836,0.018-8.96,2.521c-2.422,1.941-3.31,6.395-3.455,9.947
		c-7.491-2.416-14.987-4.816-22.552-6.985c-17.547-24.624-50.82-33.35-79.689-33.587c-18.015-0.148-35.649,3.081-53.687,0.97
		c-17.95-2.101-34.979-7.911-51.071-15.99c-2.1-1.054-4.392,1.58-2.591,3.358c6.33,6.247,12.407,12.754,18.307,19.408
		c3.162,3.567,9.213,8.472,7.478,13.878c-1.341,4.178-5.667,7.14-9.075,9.472c-13.522,9.251-28.84,15.034-44.903,17.962
		c-1.761,0.321-2.176,3.198-0.517,3.954c4.485,2.042,8.474,4.683,11.904,8.252c2.507,2.608,5.308,5.252,3.121,9.184
		c-1.199,2.157-3.654,3.639-5.591,5.014c-8.734,6.203-17.683,12.103-26.404,18.325c-2.111,1.506-1.236,4.386,1.266,4.675
		c2.758,0.319,6.1,0.647,8.469,2.273c4.851,3.33,2.662,9.078,0.252,13.221c-3.422,5.882-7.863,11.08-12.011,16.447
		c-7.063,9.139-13.499,19.338-13.041,31.304c0.065,1.693,2.502,3.167,3.749,1.553c8.897-11.513,24.773-19.02,39.369-18.294
		c14.808,0.737,22.929,17.284,37.94,17.111c12.647-0.146,16.176-13.871,26.066-19.014c6.38-3.318,14.52-3.453,20.958-0.222
		c5.991,3.007,10.079,8.846,15.614,12.565c2.19,1.472,4.112-1.304,3.255-3.255c-7.321-16.676,8.941-36.399,26.7-28.613
		c1.842,0.807,4.06-0.522,3.504-2.694c-4.175-16.306-0.38-34.706,11.197-47.202c10.922-11.787,26.975-17.32,42.825-15.873
		c23.314,5.38,45.658,14.373,66.729,25.7c22.374,12.027,44.068,24.735,70.282,24.597c11.756-0.062,23.434-2.192,34.642-5.67
		c11.799-3.662,22.737-9.161,33.871-14.437c2.558-1.212,5.123-2.428,7.506-3.954c9.354-5.992,15.265-16.344,19.267-26.435
		C502.501,389.802,503.358,371.985,501.221,355.253z M496.142,353.33c-2.224-0.615-4.615-0.799-6.804-0.743
		c-3.104,0.08-6.89,0.569-9.937,1.909c-0.957-5.034-2.369-9.96-4.228-14.649c1.917-0.415,3.802-1.631,5.746-2.138
		c3.98-1.037,7.577-0.75,11.438-0.355C494.058,342.539,495.305,347.899,496.142,353.33z M487.726,325.896
		c1.576,3.207,2.945,6.527,4.124,9.925c-2.505-0.453-5.173-0.371-7.601-0.063c-1.828,0.232-3.634,0.635-5.375,1.242
		c-0.73,0.255-2.728,1.49-4.07,1.951c-1.638-3.984-3.593-7.793-5.871-11.338c6.025,0.315,12.274-1.218,17.413-4.395
		C486.821,324.1,487.282,324.992,487.726,325.896z M485.65,321.983c-5.502,2.888-11.112,4.464-17.291,4.75
		c-0.102-0.153-0.198-0.31-0.301-0.462c-2.798-4.127-6.033-7.894-9.594-11.341c0.66-0.218,1.306-0.455,1.918-0.658
		c2.269-0.754,4.518-1.637,6.644-2.738c2.577-1.335,5.276-3.149,7.095-5.539C478.515,310.897,482.412,316.223,485.65,321.983z
		 M473.105,304.879c-1.837,2.296-3.934,4.092-6.723,5.553c-2.443,1.28-5.659,2.853-8.748,3.698
		c-3.689-3.467-7.716-6.597-12.001-9.396c2.547-0.736,5.005-2.357,6.915-3.868c2.565-2.029,5.694-5.185,6.925-8.5
		C464.335,296.181,468.925,300.35,473.105,304.879z M451.385,286.483c2.33,1.571,4.616,3.222,6.854,4.937
		c-1.741,2.582-3.04,5.233-5.465,7.446c-2.224,2.03-5.311,4.164-8.43,5.047c-3.759-2.372-7.695-4.509-11.76-6.406
		c2.831-1.668,5.293-4.468,7.151-6.843c1.89-2.415,3.815-5.532,4.487-8.724C446.646,283.396,449.039,284.902,451.385,286.483z
		 M428.289,273.238c4.905,2.471,9.759,5.053,14.492,7.838c-0.962,3.396-2.148,6.337-4.541,9.295
		c-1.998,2.469-4.313,4.734-6.929,6.55c-4.622-2.09-9.388-3.893-14.22-5.41c2.883-2.159,5.446-4.729,7.468-7.733
		c1.284-1.907,2.332-3.995,2.98-6.205C427.955,276.156,428.105,274.693,428.289,273.238z M426.156,272.167
		c0.285,0.142,0.569,0.286,0.854,0.429c-0.145,0.926-0.239,1.872-0.426,2.861c-0.462,2.44-1.441,4.753-2.724,6.871
		c-2.079,3.433-4.985,6.16-7.936,8.825c-4.393-1.336-8.83-2.449-13.247-3.341c2.661-2.721,4.584-6.052,6.096-9.577
		c1.668-3.888,3.342-8.562,2.232-12.82C416.081,267.821,421.458,269.837,426.156,272.167z M405.964,262.795
		c1.156,0.669,2.358,1.292,3.576,1.897c-0.024,0.095-0.034,0.198-0.013,0.315c1.468,8.068-2.962,16.362-8.055,22.564
		c-1.884-0.364-3.763-0.693-5.632-0.98c-2.202-0.598-4.416-1.129-6.64-1.605c3.014-4.663,2.947-12.2,1.676-17.139
		c-1.007-3.915-2.988-7.571-5.755-10.48C392.163,258.856,399.016,260.822,405.964,262.795z M372.985,255.39
		c3.477,0.375,6.87,0.933,10.22,1.595c2.844,3.106,5.087,6.693,6.19,10.845c0.75,2.823,0.953,5.793,0.646,8.696
		c-0.312,2.955-1.574,5.421-2.409,8.142c-5.847-1.18-11.759-1.982-17.718-2.51c3.086-8.831,0.76-19.604-4.3-27.379
		C368.074,254.93,370.531,255.125,372.985,255.39z M364.441,254.709c2.412,3.923,4.108,8.309,4.812,12.856
		c0.78,5.039,0.134,9.654-0.892,14.461c-5.904-0.477-11.85-0.707-17.818-0.796c1.928-4.742,2.643-10.05,1.946-15.091
		c-0.546-3.946-2.059-8.566-4.782-11.834C353.29,254.32,358.872,254.399,364.441,254.709z M332.511,254.273
		c4.499,0.046,9.005,0.026,13.511,0.031c2.418,3.78,4.478,7.367,5.06,12.122c0.632,5.167-0.425,10.028-2.183,14.786
		c-6.259-0.068-12.538-0.002-18.816,0.076c2.285-4.566,2.763-10.36,2.102-15.19c-0.605-4.42-2.265-8.391-4.766-11.917
		C329.117,254.224,330.816,254.255,332.511,254.273z M326.237,254.146c2.611,3.954,4.319,8.577,4.715,13.27
		c0.428,5.082-0.907,9.364-2.591,13.892c-5.372,0.067-10.741,0.13-16.092,0.107c0.044-0.113,0.101-0.221,0.143-0.334
		c0.446-1.197,0.703-2.442,0.87-3.707c0.436-3.309,0.393-6.745,0.332-10.075c-0.089-4.832-0.721-9.953-3.2-14.132
		C315.666,253.703,320.955,253.993,326.237,254.146z M292.56,254.118c0.008-1.05,0.113-2.506,0.012-3.909
		c5.373,1.309,10.848,2.191,16.367,2.804c2.66,5.058,3.276,10.555,3.233,16.358c-0.021,2.845,0.042,5.801-0.461,8.612
		c-0.213,1.189-0.55,2.335-1.053,3.423c-8.525-0.065-17-0.368-25.363-1.25c3.066-4.86,5.075-10.629,6.204-16.126
		C292.17,260.768,292.536,257.448,292.56,254.118z M291.265,249.891c0.027,0.906-0.02,1.808-0.017,2.446
		c0.008,1.485-0.031,2.969-0.142,4.45c-0.229,3.047-0.721,6.074-1.473,9.036c-1.301,5.122-3.521,9.612-6.029,14.132
		c-11.554-1.33-22.888-3.792-33.836-8.303c6.371-0.677,12.463-3.615,17.262-7.882c3.226-2.868,5.901-6.368,7.94-10.166
		c1.293-2.407,2.645-5.197,3.392-8.008C282.575,247.358,286.886,248.765,291.265,249.891z M273.809,243.55
		c1.012,0.496,2.033,0.962,3.058,1.414c-0.929,2.675-1.729,5.381-3.103,7.935c-1.857,3.452-4.208,6.642-7.066,9.332
		c-5.323,5.008-12.089,7.866-19.256,8.429c-3.25-1.434-6.466-3.049-9.641-4.88c-3.058-1.763-5.931-3.686-8.628-5.75
		c12.775-3.84,24.46-13.812,31.243-25.233C264.457,238.215,268.951,241.168,273.809,243.55z M259.67,234.169
		c-3.677,5.272-8,10.118-12.97,14.193c-5.753,4.715-12.091,7.776-18.871,10.619c-7.015-5.621-12.756-12.254-17.214-19.702
		c14.299,2.765,31.552-2.564,41.316-13.214C254.236,228.994,256.838,231.696,259.67,234.169z M245.791,216.397
		c1.481,2.979,3.228,5.804,5.206,8.462c-5.937,5.334-12.158,9.507-20.01,11.802c-6.966,2.036-14.033,2.258-21.122,1.386
		c-3.868-6.756-6.7-14.16-8.486-22.073c5.934,4.49,14.055,6.69,21.201,6.919C230.45,223.144,239.212,221.027,245.791,216.397z
		 M217.598,184.499c4.016,1.597,8.234,3.013,12.477,3.86c3.219,0.643,7.085,1.12,10.323,0.023c-0.271,3.225-0.244,6.486,0.085,9.745
		c-3.027,2.542-6.98,2.701-10.807,2.729c-3.968,0.029-7.948-0.224-11.861-0.896c-6.755-1.161-13.218-3.623-18.665-7.762
		c0.182-6.213,0.937-12.427,2.335-18.479C205.76,178.733,211.376,182.025,217.598,184.499z M201.726,172.747
		c1.837-7.563,4.646-14.863,8.527-21.567c3.341,6.081,8.73,11.105,14.066,15.372c5.326,4.259,11.94,8.058,18.919,8.452
		c-1.345,3.85-2.25,7.852-2.703,11.921c-1.694,0.353-3.335,0.7-5.135,0.682c-2.309-0.024-4.592-0.421-6.83-0.966
		c-3.474-0.846-6.905-1.971-10.241-3.253C212.22,181.04,206.102,177.719,201.726,172.747z M219.118,201.461
		c4.162,0.609,8.393,0.826,12.597,0.68c3.131-0.109,6.434-0.527,8.954-2.424c0.032,0.243,0.05,0.487,0.086,0.73
		c0.768,5.174,2.283,10.055,4.391,14.606c-7.008,4.063-14.192,6.743-22.566,6.492c-4.336-0.13-8.667-1.009-12.718-2.562
		c-3.181-1.219-6.004-2.907-8.843-4.668c-0.581-2.826-1.046-5.708-1.363-8.653c-0.433-4.023-0.618-8.098-0.551-12.178
		C204.838,197.989,211.876,200.401,219.118,201.461z M243.752,173.575c-7.595-0.844-14.021-4.167-19.955-9.135
		c-4.915-4.115-9.791-8.729-12.847-14.427c2.45-4.058,5.29-7.891,8.55-11.419c2.256-2.442,4.65-4.718,7.144-6.865
		c0.008,7.318,2.063,14.503,6.144,20.68c2.193,3.321,4.9,6.292,8.001,8.786c1.463,1.177,3.006,2.257,4.62,3.218
		c0.678,0.404,1.38,0.915,2.129,1.198C246.063,168.16,244.799,170.826,243.752,173.575z M248.526,164.007
		c-0.202,0.098-0.345,0.322-0.342,0.554c-0.018,0.031-0.038,0.061-0.056,0.091c-0.86-1.23-2.949-1.964-4.153-2.778
		c-1.576-1.066-3.066-2.259-4.458-3.555c-2.625-2.446-4.893-5.26-6.717-8.349c-3.409-5.773-5.098-12.421-5.17-19.096
		c4.692-3.922,9.756-7.356,15.088-10.362c0.493,6.365,1.799,12.593,4.49,18.454c2.328,5.07,5.885,10.473,10.496,13.92
		C254.134,156.178,251.069,159.938,248.526,164.007z M260.748,150.274c-0.635,0.503-1.252,1.024-1.861,1.553
		c-4.192-3.886-7.752-7.86-10.31-13.169c-2.806-5.823-4.26-12.26-4.894-18.689c5.184-2.856,10.609-5.318,16.184-7.434
		c-0.56,5.128-0.242,10.265,0.962,15.358c1.343,5.681,3.804,12.604,7.872,17.059C265.944,146.508,263.281,148.268,260.748,150.274z
		 M269.936,144.275c-1.402-2.411-3.089-4.63-4.338-7.159c-1.444-2.923-2.565-5.999-3.368-9.159
		c-1.303-5.129-1.697-10.522-1.291-15.819c4.898-1.814,9.902-3.375,14.952-4.703c-0.552,5.039-0.424,10.117,0.331,15.146
		c0.836,5.559,2.25,11.875,5.08,16.884C277.384,140.727,273.58,142.324,269.936,144.275z M282.718,139.035
		c-1.911-5.296-4.07-10.242-5.055-15.886c-0.923-5.289-1.084-10.643-0.728-15.983c3.914-1.004,7.85-1.891,11.783-2.645
		c0.074,3.358,0.464,6.706,1.114,10.003c0.651,3.305,1.361,7.597,3.083,10.722c-1.086,2.048-2.535,3.782-4.935,5.521
		c-0.91,0.659-2.526,1.281-2.605,2.589c-0.058,0.965,0.509,1.755,1.546,1.675c5.688-0.438,11.788-0.435,17.683,0.471
		C297.181,135.803,289.785,136.912,282.718,139.035z M300.704,70.625c3.476,3.252,6.893,6.566,10.171,10.044
		c5.984,6.347,12.75,12.921,16.087,21.118c1.692,4.155,3.06,9.898,0.32,13.975c-2.601,3.869-9.164,4.875-13.319,6.257
		c-6.03,2.005-12.02,4.093-17.983,6.267c1.358-2.345,2.317-5.065,3.139-7.215c2.261-5.92,3.427-12.189,4.044-18.479
		C304.13,92.745,305.034,80.151,300.704,70.625z M294.857,120.377c-0.35,1.08-0.694,2.068-1.07,2.99
		c-0.341-0.898-0.718-1.787-1.008-2.677c-0.647-1.981-1.194-3.994-1.642-6.028c-0.753-3.413-1.152-6.86-1.4-10.332
		c3.093-0.577,6.181-1.086,9.249-1.528C298.357,108.968,296.752,114.527,294.857,120.377z M323.169,138.172
		c-5.629-3.787-12.98-5.414-20.368-6.069c10.526-1.901,21.907-3.037,31.855,0.267c4.367,1.45,7.833,4.291,7.667,9.126
		c-0.127,3.672-2.293,6.76-4.299,9.739c-1.474,2.189-3.632,4.337-5.548,6.579C332.515,150.186,329.621,142.511,323.169,138.172z
		 M361.469,158.839c-2.961-0.486-5.931-0.801-9.05-0.658c-4.291,0.197-12.734,0.454-16.257,3.208
		c5.262-4.114,10.927-8.924,17.345-8.65c3.425,0.146,6.292,1.552,9.253,3.124c1.026,0.544,2.44,1.098,3.382,1.717
		c0.552,0.363,2.501,2.609,2.817,2.668C366.414,159.772,363.944,159.246,361.469,158.839z M473.926,172.923
		c0.24,3.1-0.04,6.173-0.779,9.301c-0.918-0.498-1.84-0.988-2.777-1.444C471.568,178.167,472.752,175.547,473.926,172.923z
		 M468.309,160.856c0.136-3.892,0.008-7.681-0.77-11.53c1.408,0.437,2.807,0.947,4.199,1.574c1.007,0.454,2.035,0.954,3.083,1.428
		C473.177,155.558,471.059,158.542,468.309,160.856z M376.459,29.641c10.325,0.867,21.641-1.813,30.488-7.511
		c-4.948,20.666-2.957,43.889,4.695,63.421c-1.185-0.691-2.382-1.401-3.57-2.17c-4.789-3.102-8.634-6.927-12.591-10.966
		c-3.806-3.884-9.058-5.833-12.988-9.678c-10.712-10.479-15.145-24.666-21.434-37.739C365.662,27.868,371.622,29.235,376.459,29.641
		z M361.229,36.409c3.871,8.974,7.755,18.561,14.352,25.929c3.286,3.67,7.298,6.85,11.471,9.457
		c4.595,2.87,7.216,6.771,11.168,10.364c3.539,3.218,7.554,5.888,11.862,7.953c1.65,0.791,3.199,1.567,4.627,2.416
		c0.259,0.42,0.653,0.632,1.08,0.675c3.236,2.124,5.725,4.803,7.062,9.281c0.475,1.591,3.211,1.384,3.026-0.41
		c-0.699-6.804-4.352-10.369-8.97-13.374c-4.125-12.476-6.992-25.187-7.464-38.393c-0.188-5.275,0.034-10.449,0.546-15.575
		c0.237,7.85,1.115,15.698,2.699,23.641c1.488,7.455,3.55,14.794,7.362,21.423c3.672,6.384,8.897,10.331,14.432,14.942
		c3.575,2.978,4.124,5.595,5.301,9.826c0.706,2.538,1.884,4.583,3.813,6.319c-1.338,0.378-2.586,1.12-3.608,2.256
		c-1.778,1.976-3.717,7.163-0.504,8.814c0.328,0.169,0.635,0.008,0.767-0.312c0.828-2.003,0.164-4.21,1.503-6.119
		c1.107-1.578,3.125-2.396,5.078-2.371c1.258,0.699,2.574,1.269,3.911,1.794c-3.161,1.592-5.509,5.286-3.725,8.565
		c0.21,0.385,0.912,0.447,1.102,0c0.726-1.711,1.402-3.797,2.826-5.074c1.309-1.172,3.009-1.436,4.693-1.642
		c1.731,0.689,3.425,1.471,5.009,2.516c-1.01,0.347-1.914,0.999-2.711,1.705c-2.034,1.801-4.713,5.611-2.179,8.105
		c0.42,0.413,1.218,0.249,1.357-0.358c0.45-1.972,1.013-3.565,2.469-5.062c1.196-1.23,2.414-1.743,3.892-2.224
		c1.009,0.772,2.011,1.442,3.018,2.03c-1.259,0.766-2.3,1.89-2.985,3.215c-0.94,1.819-1.591,4.671,0.557,5.909
		c0.258,0.149,0.637,0.07,0.782-0.205c0.703-1.335,0.602-2.854,1.238-4.198c0.735-1.553,2.067-2.572,3.746-2.886
		c0.093-0.017,0.174-0.045,0.254-0.074c3.278,1.339,6.749,2.102,10.802,2.921c3.951,0.798,8.993,2.145,11.15,5.949
		c3.114,5.493-3.334,14.174-8.859,15.578c-3.587,0.911-7.154-1.285-10.24-2.69c-4.408-2.007-8.921-3.014-13.678-3.815
		c-5.245-0.883-10.124-1.855-14.875-4.362c-3.903-2.059-7.502-3.025-11.925-3.2c-2.815-0.112-5.72,0.103-8.48-0.598
		c-2.383-0.606-4.364-2.013-6.601-2.946c-3.274-1.366-5.963-1.16-9.349-0.36c-12.244,2.893-23.076,0.137-34.748-3.751
		c-1.65-0.55-2.685,1.959-1.178,2.795c9.114,5.053,17.605,11.263,24.784,18.844c2.945,3.109,5.581,6.468,9.032,9.051
		c4.262,3.19,9.203,3.702,13.901,5.91c3.963,1.862,6.932,5.083,10.306,7.772c3.926,3.128,8.278,4.518,13.159,5.444
		c10.579,2.005,20.18,4.756,29.924,9.18c-6.525,7.761-23.06,1.876-30.894,0.178c-10.589-2.295-21.937-3.993-31.625-9.08
		c-4.048-2.126-7.884-4.537-12.238-6.025c-4.748-1.622-9.569-2.446-14.004-4.927c-3.802-2.127-7.339-4.695-11.098-6.509
		c-5.121-5.83-11.862-11.026-19.844-11.22c-4.88-0.119-9.236,2.122-13.139,5.146c1.458-2.255,2.695-4.464,3.579-6.161
		c2.828-5.427,2.898-11.223-1.668-15.701c-7.454-7.31-18.678-7.219-29.357-5.198c3.005-0.957,6.002-1.938,8.979-2.971
		c8.147-2.826,12.534-8.519,11.32-17.431c-1.256-9.219-8.328-16.752-14.275-23.43c-3.849-4.322-7.8-8.61-11.882-12.767
		c8.637,4.935,17.234,9.943,25.781,15.018c8.627,5.122,20.734,15.161,27.081,1.921c5.551-11.578,3.77-27.599,1.581-39.78
		c-1.248-6.944-2.621-14.051-4.462-21.007C358.494,30.14,359.874,33.268,361.229,36.409z M441.733,158.909
		c-2.449,2.889-4.88,5.792-7.312,8.695c0.003-3.824,0.006-7.649,0.009-11.473c0.001-1.307-1.447-2.11-2.568-1.474
		c-2.601,1.475-4.961,3.079-7.119,5.008c-0.171-2.197-0.775-4.394-1.372-6.482c-0.461-1.612-0.876-3.852-2.967-3.893
		c-2.008-0.039-4.462,1.877-6.092,2.887c-1.455,0.902-3.109,1.886-4.461,3.096c-0.252-0.153-0.501-0.313-0.745-0.483
		c-4.052-2.816-7.308-6.868-10.949-10.167c-4.03-3.651-8.304-6.938-12.81-9.88c6.685,1.668,13.533,2.669,20.305,1.753
		c3.42-0.462,6.334-1.518,9.694-0.299c0.038,0.014,0.075,0.031,0.113,0.045c-0.079,0.29-0.094,0.592,0.022,0.869
		c1.569,3.736,2.926,7.729,5.264,11.07c0.517,0.739,1.764,1.157,2.447,0.315c1.824-2.246,3.531-4.49,5.123-6.848
		c0.683,3.17,1.32,6.35,2.049,9.511c0.262,1.134,2.025,1.745,2.805,0.741c1.861-2.397,3.71-4.779,5.512-7.203
		c0.276,2.141,0.71,4.268,1.232,6.345c0.444,1.766,0.792,4.596,2.828,5.375c1.145,0.438,2.045,0.112,3.04-0.596
		c1.903-1.356,3.659-3.75,5.287-6.049c0.17,4.095,0.507,8.581,2.741,11.474c-0.173,0.119-0.333,0.259-0.454,0.443
		c-1.996,3.007-4.012,5.999-6.012,9.002c-0.852-3.651-1.691-7.304-2.511-10.962C444.539,158.428,442.625,157.856,441.733,158.909z
		 M443.9,172.879c-2.504-0.516-4.971-1.167-7.275-2.218c1.809-2.128,3.614-4.258,5.413-6.394
		C442.67,167.135,443.29,170.005,443.9,172.879z M430.97,159.134c-0.039,2.527-0.078,5.053-0.118,7.58
		c-1.58-1.453-3.069-3.005-4.729-4.355C427.716,161.245,429.319,160.156,430.97,159.134z M421.005,159.397
		c-2.334-0.902-4.782-1.476-7.134-2.295c0.384-0.287,0.772-0.57,1.172-0.836c0.797-0.53,1.609-1.036,2.436-1.518
		c0.471-0.275,1.404-0.977,2.196-1.364c0.41,1.145,0.638,2.987,0.817,3.739C420.672,157.881,420.83,158.642,421.005,159.397z
		 M419.9,138.38c0.647,0.311,1.306,0.598,1.998,0.82c1.448,0.463,2.929,0.695,4.426,0.822c-1.181,1.611-2.446,3.168-3.791,4.638
		C421.6,142.592,420.745,140.487,419.9,138.38z M431.135,140.208c2.168,0.043,4.327,0.127,6.428,0.589
		c-1.389,2.215-2.895,4.349-4.587,6.338C432.456,144.802,431.817,142.503,431.135,140.208z M442.802,146.214
		c-0.261-1.295-0.463-2.597-0.672-3.899c2.566,1.025,5.011,2.169,7.637,3.053c-0.73,0.904-1.46,1.809-2.196,2.709
		c-0.82,1.033-1.661,2.049-2.521,3.048c-1.102,1.865-1.506,2.085-1.212,0.658C443.214,150.967,443.048,147.439,442.802,146.214z
		 M454.034,167.193c0.543,2.738,1.1,5.473,1.654,8.209c-1.935-0.515-3.89-0.965-5.857-1.365
		C451.297,171.794,452.692,169.511,454.034,167.193z M454.524,146.566c2.865,0.53,5.678,0.977,8.449,1.575
		c-2.021,3.3-4.233,6.388-6.742,9.32C455.004,154.585,454.767,149.899,454.524,146.566z M457.44,162.148
		c2.453-3.103,4.786-6.308,6.947-9.623c0.403,4.056,0.103,8.149-0.23,12.238c-0.043,0.533,0.125,0.941,0.398,1.248
		c-0.283,0.124-0.539,0.344-0.734,0.678c-1.394,2.394-2.986,4.736-4.593,7.051c-0.9-3.686-1.819-7.367-2.706-11.056
		C456.875,162.615,457.202,162.448,457.44,162.148z M464.826,171.64c0.605,2.35,0.937,4.719,1.079,7.171
		c-1.433-0.584-2.884-1.122-4.35-1.622C462.703,175.359,463.769,173.51,464.826,171.64z M335.925,52.285
		c8.069-8.398,14.276-18.215,17.094-29.362c1.903,7.123,2.655,14.697,3.504,21.744c1.483,12.309,3.335,25.038,0.65,37.337
		c-0.504,2.311-1.209,5.047-2.87,6.816c-3.254,3.464-8.061,0.173-11.346-1.696c-5.412-3.08-10.828-6.15-16.205-9.292
		c-5.151-3.009-10.309-6.006-15.456-9.02C320.766,66.87,330.249,58.193,335.925,52.285z M248.331,14.523
		c7.023-1.727,14.428,0.812,21.081,3.463c7.372,2.937,14.603,6.32,21.565,10.129c6.941,3.797,13.633,8.067,19.856,12.96
		c4.718,3.71,8.749,8.406,13.399,12.184c-4.387-0.747-8.808-1.281-13.246-1.63c-5.332-10.126-17.123-18.125-26.813-23.434
		c-5.918-3.242-12.15-5.892-18.479-8.217C260.571,18.097,254.147,15.052,248.331,14.523z M260.917,38.269
		c-2.978-2.32-6.177-4.339-9.162-6.647c0.09,0.07-5.489-4.174-5.256-4.754c0.23-0.575,5.635-1.224,6.394-1.389
		c1.185-0.257,1.741-1.778,1.13-2.777c-0.691-1.127-1.44-2.177-2.218-3.195c3.111,1.051,6.395,1.808,9.274,2.81
		c6.745,2.348,13.387,5.022,19.705,8.367c5.52,2.921,10.786,6.347,15.538,10.408c3.595,3.072,6.358,6.645,9.257,10.208
		c-11.063-0.491-22.195,0.138-33.147,1.601C270.371,46.789,265.961,42.199,260.917,38.269z M130.525,11.208
		c-1.363-2.045-2.639-4.133-3.829-6.281c9.278,1.388,15.613,12.215,21.599,18.688c6.891,7.45,14.126,14.602,21.884,21.151
		c7.174,6.055,14.822,11.594,22.96,16.284c5.268,3.037,11.279,6.42,17.432,8.549c-0.826,0.045-1.646,0.099-2.454,0.166
		c-5.297,0.44-10.523,1.357-15.729,2.395c-12.615-8.949-24.883-17.503-35.813-28.66c-7.515-7.671-13.899-16.118-20.27-24.624
		c-0.585-0.991-1.364-1.943-2.131-2.84C132.965,14.424,131.749,12.815,130.525,11.208z M126.638,28.044
		c2.325-1.437,5.643,0.011,8.196-1.839c0.465-0.337,0.879-0.728,1.236-1.157c5.185,7.69,11.337,14.821,17.565,21.391
		c9.335,9.847,20.26,19.833,32.11,27.082c-8.491,1.76-16.988,3.447-25.711,3.524c-10.337,0.091-20.517-1.746-30.228-5.048
		c0.014-0.094,0.03-0.188,0.032-0.29c0.091-4.517-0.774-9.019-1.347-13.493c-0.432-3.367-1.311-6.222,0.404-9.473
		c0.514-0.974,1.539-1.691,2.071-2.686c1.157-2.167,1.247-4.383,0.374-6.657C130.428,37.023,123.001,30.292,126.638,28.044z
		 M51.4,96.814c1.896-14.413,1.104-32.766-6.742-46.13c3.427,2.503,6.817,5.108,10.212,7.79
		c11.651,9.206,23.749,17.471,38.641,20.139c8.338,1.493,16.675,1.9,24.349,5.849c7.239,3.725,13.491,9.108,20.675,12.96
		c9.475,5.08,19.418,7.896,29.673,7.586c-20.86,6.559-41.653,13.189-62.995,18.303c-13.455,3.225-26.982,6.145-40.411,9.481
		c-10.499,2.609-21.642,5.067-31.945,8.981C43.119,129.132,49.355,112.361,51.4,96.814z M54.388,156.995
		c-2.859-3.407-6.789-5.79-10.919-7.342c-4.17-1.567-8.478-1.773-12.75-2.229c12.107-3.363,23.986-7.569,36.225-10.578
		c13.756-3.383,27.61-6.35,41.368-9.725c19.414-4.762,39.012-10.274,57.789-17.563c-1.286,0.731-2.561,1.459-3.812,2.177
		c-12.524,7.177-24.217,15.578-35.476,24.591c-22.274,17.831-43.562,37.568-70.742,47.542
		C59.143,174.882,61.026,164.904,54.388,156.995z M77.073,195.623c-3.552-6.945-10.084-9.401-17.077-10.357
		c24.649-7.779,44.633-25.546,64.218-41.989c11.6-9.738,23.589-18.822,36.636-26.551c6.473-3.834,13.125-7.364,19.926-10.58
		c4.834-2.286,9.908-4.13,14.832-6.246c-18.579,14.846-31.199,37.051-46.543,55.046c-11.008,12.911-23.315,24.803-36.307,35.701
		c-6.596,5.534-13.419,10.784-20.453,15.75c-4.771,3.368-9.89,6.353-14.778,9.603C79.901,209.368,80.483,202.29,77.073,195.623z
		 M113.876,264.376c0.501-5.314,0.473-10.654-0.534-15.927c-1.192-6.242-4.021-14.031-9.105-18.56
		c-5.363-7.455-14.515-10.148-23.768-10.053c5.129-3.125,10.043-6.877,14.767-10.282c6.509-4.692,12.862-9.614,19.029-14.747
		c12.559-10.452,24.39-21.84,35.188-34.107c15.411-17.506,27.964-38.65,45.294-54.306c-3.634,4.21-6.854,8.754-9.65,13.274
		c-9.213,14.894-14.711,31.585-20.137,48.126c-6.241,19.024-13.271,37.061-23.907,54.111c-5.347,8.572-10.793,17.083-16.194,25.622
		C121.383,253.025,117.346,258.606,113.876,264.376z M151.071,259.726c-11.358-2.409-23.373,0.059-32.883,6.402
		c3.176-4.901,6.065-10.086,9.077-14.827c5.1-8.024,10.184-16.059,15.26-24.098c10.049-15.918,17.552-32.209,23.503-50.059
		c5.713-17.137,10.714-34.669,19.494-50.564c6.908-12.504,15.613-22.243,26.6-30.441c-10.493,11.454-12.911,31.22-16.477,44.918
		c-3.403,13.072-9.385,23.722-17.604,34.327c-6.293,8.119-11.382,16.91-13.827,26.831
		C154.267,219.745,147.599,239.73,151.071,259.726z M165.114,295.362c-1.977-10.461-1.453-20.548-1.261-30.968
		c2.333,3.92,4.924,7.686,7.734,11.278c-2.876,14.054-2.309,28.823,0.786,42.842C169.087,311.11,166.627,303.37,165.114,295.362z
		 M200.145,319.643c-0.837-0.527-1.59-1.799-2.384-2.459c-0.923-0.768-2.215-0.699-2.889,0.372c-1.252,1.989-2.432,4.02-3.601,6.059
		c-1.694-2.709-3.404-5.437-5.249-8.01c-1.167-1.628-2.375-3.294-4.546-3.402c-2.895-0.144-4.784,2.773-6.051,6.286
		c-2.535-13.054-2.557-25.96-0.842-39.172c7.825,9.135,17.163,16.924,27.581,22.9c0.009,0.069,0.009,0.135,0.025,0.207
		c1.036,4.688,1.677,9.376,1.685,14.186C203.879,319.073,203.652,321.851,200.145,319.643z M256.545,317.64
		c2.977,0.236,5.964,0.397,8.958,0.508c-2.484,8.825-0.797,18.14,2.641,26.581C261.528,337.112,258.125,327.93,256.545,317.64z
		 M289.965,345.563c-0.305,2.646-0.484,1.956-3.103,1.169c-3.231-0.971-5.657-2.499-8.421-4.284
		c-1.442-0.931-2.623-1.909-4.319-1.408c-1.514,0.447-2.329,1.883-2.788,3.619c-3.007-8.648-4.525-17.442-2.137-26.401
		c6.48,0.143,12.988,0.047,19.5-0.183c-1.6,3.7-1.645,8.492-1.332,12.166c0.263,3.089,1.001,6.108,1.614,9.138
		C289.349,341.214,290.182,343.683,289.965,345.563z M330.66,337.088c-3.976-6.378-6.031-13.466-6.807-20.856
		c2.834-0.145,5.659-0.275,8.473-0.382c-4.021,7.674-1.902,18.084,1.582,25.936C332.587,340.678,331.536,338.494,330.66,337.088z
		 M351.025,328.665c-0.631,3.166,1.066,10.505-2.055,11.929c-2.706,1.235-5.677-2.135-9.372,0.596
		c-0.685,0.506-1.287,1.007-1.929,1.317c-1.226-4.051-2.563-8.105-3.15-12.303c-0.71-5.083,0.282-9.353,1.5-14.244
		c0.02-0.081,0.028-0.158,0.037-0.236c7.1-0.219,14.214-0.299,21.315-0.057C354.19,319.353,351.975,323.897,351.025,328.665z
		 M382.073,345.957c-0.205-2.837-0.209-5.694,0.043-8.568c0.579-6.586,3.074-12.189,4.872-18.326
		c0.525,0.113,1.046,0.236,1.567,0.358c2.903,1.01,5.747,2.144,8.511,3.393c-4.013,1.812-7.257,6.437-9.284,9.852
		C385.398,336.686,383.354,341.27,382.073,345.957z M409.395,335.203c-2.907,1.35-5.59,3.206-7.88,5.451
		c-0.91,0.893-5.427,7.786-5.568,7.788c-2.393,0.04,0.185-10.277-6.503-7.31c-1.085,0.481-2.073,1.262-2.975,2.229
		c0.912-2.394,1.875-4.768,3.094-7.038c1.328-2.475,2.881-4.904,4.841-6.929c1.854-1.915,4.258-3.097,6.114-4.928
		c4.956,2.46,10.071,5.361,14.784,8.812C413.168,333.629,411.024,334.446,409.395,335.203z M419.739,369.571
		c5.118,4.677,6.814,10.33,8.563,16.581c-1.259,1.856-2.704,3.6-4.306,5.222c-0.568-5.373-3.65-11.124-6.15-15.152
		c-3.246-5.229-7.581-10.293-12.753-13.836C410.483,363.539,415.616,365.803,419.739,369.571z M391.394,396.389
		c1.899-3.369,4.621-5.689,6.876-8.696c3.144-4.192,0.945-7.887-1.279-11.597c2.661,0.253,5.411,0.504,7.835,0.17
		c1.528-0.21,2.876-0.296,3.69-1.845c0.966-1.837-0.137-3.498-1.053-5.029c-0.405-0.677-0.842-1.339-1.266-2.008
		c3.149,2.878,6.036,5.939,8.441,9.717c1.866,2.931,3.505,6.092,4.445,9.446c0.746,2.665,0.752,5.421,1.232,8.091
		c-1.415,1.102-2.911,2.128-4.506,3.046c-6.719,3.869-14.257,6.014-21.908,7.069c-1.935,0.097-3.862,0.158-5.785,0.197
		C388.9,401.989,389.828,399.166,391.394,396.389z M343.552,383.041c5.133,6.448,9.609,12.449,12.624,19.807
		c-2.901-0.447-5.804-0.966-8.712-1.553c-1.608-6.39-3.855-12.459-7.034-18.278c-3.114-5.701-6.836-10.164-11.014-14.804
		c-0.006-0.047-0.006-0.095-0.012-0.141C334.689,372.467,339.237,377.62,343.552,383.041z M310.01,382.714
		c-0.48,0.17,3.145,0.935,2.773,0.908c0.932,0.068,1.462,0.027,2.423-0.31c1.789-0.627,3.213-2.19,4.025-3.857
		c0.783-1.609,0.519-4.27,0.917-6.224c1.748,1.069,4.004,3.624,4.967,4.446c1.232,1.051,3.314,0.755,3.753-0.991
		c0.517-2.057,0.735-4.047,0.708-6.006c5.748,9.142,11.281,19.226,13.626,29.7c-1.754-0.396-3.51-0.812-5.271-1.263
		c-10.393-2.664-20.61-5.913-30.816-9.204C307.737,387.116,308.314,383.316,310.01,382.714z M107.408,343.532
		c10.416,4.53,21.435,7.725,32.604,9.574c16.671,2.76,32.773,1.531,49.51,0.405c29.492-1.983,62.828,4.271,83.99,26.18
		c-0.12-0.032-0.241-0.061-0.361-0.092c-3.729-3.591-9.054-6.311-13.252-8.318c-6.139-2.936-12.678-4.999-19.337-6.366
		c-15.738-3.23-31.799-2.634-47.741-1.725C162.884,364.898,129.685,366.224,107.408,343.532z M94.616,393.306
		c8.628-3.82,18.266-8.712,24.854-15.629c5.367-5.634,6.177-12.265,1.091-18.363c-1.847-2.215-3.779-4.367-5.738-6.498
		c17.956,12.975,43.172,14.824,64.694,14.477c17.39-0.281,34.915-2.197,52.249,0.026c7.543,0.967,15.049,2.697,22.132,5.495
		c0.279,0.11,0.554,0.232,0.831,0.346c-10.194-2.975-22.735-2.099-31.983-1.934c-16.782,0.301-33.057,2.663-49.088,7.69
		c-16.534,5.185-32.694,11.365-49.555,15.489c-16.354,4-32.59,5.451-49.264,5.352C81.624,398.267,88.271,396.116,94.616,393.306z
		 M56.608,441.845c4.728-3.294,9.428-6.629,14.147-9.933c4.352-3.047,10.844-6.292,13.387-11.253
		c3.423-6.679-2.167-13.204-8.408-17.899c30.39,3.834,62.332-7.648,90.395-17.609c1.654-0.587,3.305-1.149,4.956-1.694
		c-0.384,0.177-0.771,0.355-1.15,0.531c-13.217,6.153-25.945,13.413-38.654,20.538c-12.536,7.028-25.028,14.14-37.767,20.797
		C82.032,431.322,69.54,438.808,56.608,441.845z M161.907,486.062c-5.225-2.342-11.148-2.915-16.76-1.865
		c-5.956,1.115-11.155,4.145-15.258,8.562c-5.255,5.659-9.383,13.431-18.339,12.379c-8.382-0.985-14.551-7.776-21.523-11.829
		c-6.469-3.762-13.569-4.759-20.954-3.912c-11.258,1.291-21.192,5.902-29.583,12.968c15.456-23.137,39.405-38.937,66.726-44.597
		c15.68-3.248,30.748-6.122,45.069-13.63c14.082-7.383,26.887-16.931,40.811-24.595c8.536-4.699,17.421-8.477,26.828-11.068
		c2.537-0.698,5.081-1.249,7.631-1.721c-0.98,0.35-1.957,0.694-2.926,1.018c-6.031,2.014-12.047,4.181-17.68,7.159
		c-9.008,4.762-16.871,11.549-23.09,19.604c-11.588,15.007-18.637,37.69-13.358,56.729
		C167.206,489.226,164.787,487.354,161.907,486.062z M213.243,425.789c-4.006,5.865-6.894,12.488-8.407,19.43
		c-0.453,2.078-2.924,20.698-0.354,21.13c-8.731-1.465-17.907,0.827-24.282,7.337c-4.039,4.124-6.259,9.365-6.818,14.82
		c-0.9-8.01-1.324-15.831,0.11-24.138c1.868-10.819,6.738-21.058,13.677-29.542c6.237-7.627,14.161-13.844,23.05-18.092
		c6.392-3.055,13.343-4.887,20.138-7.015C223.664,413.729,217.832,419.072,213.243,425.789z M198.613,412.525
		c-15.198,6.721-28.481,16.883-42.749,25.267c-7.346,4.316-14.97,8.233-23.087,10.883c-8.597,2.807-17.544,4.269-26.373,6.133
		c-14.742,3.113-28.9,8.118-41.401,16.695c-9.737,6.68-17.969,14.942-24.641,24.468c4.86-10.908,14.186-19.802,20.588-30.022
		c3.102-4.953,6.274-11.365,3.125-17.075c-1.204-2.184-3.055-3.676-5.187-4.743c9.968-1.919,19.661-7.605,28.412-12.004
		c13.131-6.601,25.949-13.796,38.754-21.002c12.515-7.043,25.021-14.121,37.817-20.647c6.631-3.382,13.375-6.594,20.458-8.921
		c0.608-0.2,1.219-0.374,1.83-0.551c-9.753,3.79-19.068,8.739-27.93,14.394c-17.031,10.869-32.138,24.05-47.067,37.546
		c-1.393,1.215-2.768,2.452-4.113,3.726c-1.679,1.524,0.785,3.934,2.473,2.473c18.262-15.802,40.265-26.873,63.604-32.915
		c11.777-3.049,23.87-4.84,36.018-5.453c9.466-0.478,18.274,0.131,27.276,0.937C223.39,402.882,210.05,407.468,198.613,412.525z
		 M252.421,398.238c-24.74-4.178-50.059-4.146-74.814,1.581c-15.088,3.491-29.707,9.05-43.141,16.673
		c21.466-17.515,45.722-31.867,72.987-36.979c44.488-8.342,86.262,13.08,128.232,24.003c7.36,1.915,15.049,3.697,22.852,4.945
		c0.287,0.161,0.619,0.203,0.941,0.141c2.327,0.359,4.663,0.677,7.003,0.928c7.041,1.807,15.588,1.21,22.568,0.651
		c7.482-0.6,14.928-1.997,21.921-4.779c11.852-4.716,21.935-13.344,26.13-25.64c3.885-11.385,2.559-24.731-3.906-34.926
		c-6.972-10.995-19.455-19.185-31.28-24.612c-3.708-2.158-7.906-3.6-12.219-4.659c-7.723-2.341-15.557-3.572-23.564-3.749
		c-5.852-0.566-11.731-0.869-17.608-0.988c-20.066-0.408-40.086,1.604-60.126,2.227c-38.071,1.183-77.415-3.603-105.357-32.095
		c-6.863-6.998-12.732-14.934-17.403-23.551c-3.975-7.333-6.192-15.329-9.529-22.874c3.082-15.295,10.934-29.818,17.702-44.195
		c0.038-0.081,0.047-0.157,0.063-0.235c2.881-4.947,6.141-9.683,9.867-14.388c6.441-8.131,11.598-16.95,14.735-26.878
		c3.381-10.698,4.359-21.996,7.766-32.693c3.402-10.682,9.296-19.122,18.42-25.571c1.412,0.009,2.838,0.082,4.285,0.241
		c1.481,0.163,1.78-2.255,0.35-2.587c-13.792-3.203-26.369,2.605-39.251,6.857c-7.018,2.316-14.18,4.693-21.618,5.063
		c-8.685,0.432-17.206-1.918-24.984-5.661c-7.14-3.437-13.385-8.191-20.135-12.272c-6.904-4.174-14.176-5.968-22.076-7.27
		c-8.032-1.324-15.646-2.867-23.035-6.447c-6.626-3.211-12.827-7.381-18.815-11.643c-6.696-4.766-13.228-9.592-19.916-14.148
		c10.343,3.767,20.825,7.128,31.62,9.755c10.796,2.628,20.719,5.633,30.436,11.153c8.505,4.832,17.069,9.404,26.313,12.683
		c9.18,3.257,18.652,5.532,28.41,5.935c9.936,0.41,19.686-1.365,29.361-3.424c9.885-2.103,19.784-4.533,29.946-4.617
		c9.675-0.08,18.444,2.362,27.1,6.557c0.883,0.428,1.783-0.629,1.069-1.385c-1.784-1.889-3.799-3.443-5.977-4.716
		c1.379,0.089,2.752,0.249,4.099,0.669c3.676,1.145,6.148,3.453,8.576,6.309c0.309,0.363,0.877,0.051,0.891-0.369
		c0.304-9.009-12.564-11.443-19.708-9.351c-1.82-0.61-3.693-1.102-5.605-1.463c1.637-0.7,3.26-1.428,4.887-2.05
		c4.144-1.583,8.344-3.02,12.589-4.309c8.793-2.671,17.777-4.706,26.862-6.084c17.953-2.724,35.897-2.359,53.911-0.683
		c-0.893,0.676-1.797,1.334-2.725,1.952c-2.794,1.86-5.749,3.438-8.954,4.461c-2.831,0.904-5.505,0.829-8.3,0.945
		c-3.542-2.096-7.077-4.202-10.593-6.34c-2.087-1.269-4.498,1.737-2.643,3.426c2.183,1.987,4.361,3.972,6.53,5.964
		c1.892,10.614,2.474,21.412,1.665,32.169c-0.108-0.024-0.221-0.04-0.343-0.036c-26.365,0.824-54.479,11.184-74.613,28.384
		c-18.688,15.965-28.127,39.993-28.745,64.254c-0.625,24.562,6.646,49.673,25.409,66.369c19.396,17.258,45.076,24.111,70.422,26.196
		c17.176,1.413,34.442,0.826,51.654,0.702c18.266-0.132,35.998,0.565,54.067,3.448c0.039,0.006,0.07-0.005,0.108-0.003
		c23.099,8.486,47.245,14.433,63.932,34.177c16.786,19.86,20.607,52.294,9.786,75.805c-10.919,23.726-36.746,37.067-61.839,39.634
		c-13.615,1.393-27.515-0.292-40.395-4.912c-12.816-4.598-24.589-11.799-37.231-16.881c-14.526-5.839-29.596-11.181-44.757-15.108
		C275.64,399.056,263.845,396.933,252.421,398.238z M307.097,414.304c-0.004,0.019-0.008,0.039-0.012,0.058
		c-10.586-4.445-21.468-8.253-32.552-11.258c6.269,1.15,12.509,2.805,18.81,4.771c4.744,1.48,9.489,3.003,14.217,4.586
		C307.376,413.066,307.219,413.679,307.097,414.304z M318.929,419.204c-0.029,0.132-0.06,0.267-0.091,0.402
		c-3.454-1.638-6.947-3.208-10.473-4.709c0.025-0.235,0.053-0.467,0.097-0.688c0.089-0.45,0.209-0.89,0.332-1.328
		c3.622,1.223,7.235,2.475,10.823,3.793C319.357,417.507,319.115,418.345,318.929,419.204z M332.025,426.264
		c-1.5-0.796-2.993-1.602-4.504-2.382c-2.424-1.251-4.874-2.459-7.339-3.644c0.041-0.316,0.084-0.629,0.144-0.931
		c0.145-0.732,0.316-1.46,0.507-2.183c4.133,1.534,8.24,3.134,12.296,4.841C332.621,423.347,332.161,424.831,332.025,426.264z
		 M333.382,426.981c0.139-0.755,0.222-1.525,0.363-2.291c0.139-0.76,0.297-1.511,0.481-2.256c0.963,0.411,1.931,0.812,2.889,1.234
		c3.154,1.391,6.259,2.88,9.351,4.389c-0.563,1.699-1.131,3.471-1.348,5.199C341.215,431.182,337.306,429.074,333.382,426.981z
		 M358.771,440.161c-4.198-1.966-8.349-4.095-12.49-6.285c0.635-1.641,0.994-3.461,1.376-5.235c4.414,2.161,8.811,4.34,13.298,6.307
		c-0.356,0.782-0.649,1.602-0.97,2.378C359.603,438.254,359.155,439.199,358.771,440.161z M360.134,440.799
		c0.326-0.802,0.614-1.624,0.922-2.406c0.37-0.938,0.83-1.904,1.172-2.89c3.966,1.695,8.009,3.21,12.203,4.381
		c-0.376,1.144-0.82,2.242-1.447,3.305c-0.472,0.801-1.084,1.499-1.662,2.219C367.536,444.045,363.815,442.487,360.134,440.799z
		 M386.134,449.529c-4.592-0.874-9.048-2.131-13.42-3.641c1.38-1.535,2.318-3.756,2.767-5.722c0.323,0.085,0.642,0.179,0.967,0.26
		c4.188,1.044,8.442,1.786,12.725,2.256c-0.494,1.325-0.899,2.689-1.495,3.979C387.225,447.639,386.651,448.573,386.134,449.529z
		 M406.296,450.77c-1.174,0.071-2.347,0.142-3.53,0.17c-5.168,0.121-10.144-0.289-14.974-1.108c0.534-0.915,0.967-1.904,1.365-2.827
		c0.568-1.317,1.151-2.742,1.431-4.187c5.986,0.567,12.021,0.598,18.013,0.058c0.012,1.57-0.856,3.552-1.218,4.726
		C407.057,448.661,406.651,449.71,406.296,450.77z M422.035,444.962c-0.092,1.292-0.377,2.543-0.66,3.795
		c-4.423,0.915-8.912,1.568-13.471,1.917c0.634-1.693,1.064-3.506,1.468-5.188c0.215-0.895,0.467-1.846,0.397-2.72
		c2.395-0.245,4.782-0.574,7.154-0.995c1.567-0.279,3.13-0.613,4.688-0.976C421.944,442.134,422.141,443.466,422.035,444.962z
		 M440.873,443.084c-5.882,2.172-11.87,3.999-17.981,5.348c0.588-2.602,0.711-5.519-0.195-7.89c6.144-1.511,12.181-3.672,17.9-6.46
		C442.098,436.928,441.596,439.985,440.873,443.084z M442.434,442.51c1.225-2.74,0.667-6.258-0.839-8.917
		c4.891-2.462,9.538-5.384,13.8-8.759c1.244,1.332,2.322,2.786,3.052,4.513c0.815,1.927,0.767,3.835,0.982,5.762
		C453.854,437.806,448.195,440.317,442.434,442.51z M477.649,424.436c-4.147,3.571-8.741,5.517-13.546,7.94
		c-0.499,0.251-3.088,1.235-3.096,1.963c0.019-1.909-0.634-3.987-1.307-5.52c-0.795-1.812-1.92-3.456-3.384-4.725
		c0.347,0.301,6.282-5.771,6.84-6.364c1.575-1.674,3.046-3.428,4.429-5.244c2.518,1.049,5.123,1.777,7.398,3.435
		c1.465,1.068,2.796,2.418,3.741,3.97c0.506,0.831,0.824,1.673,1.093,2.531C479.116,423.115,478.397,423.792,477.649,424.436z
		 M487.486,412.476c-1.78,3.072-3.897,5.95-6.314,8.551c-1.899-4.783-7.939-8.582-12.815-9.552
		c2.674-3.662,4.947-7.601,6.755-11.808c0.047-0.11,0.085-0.224,0.132-0.334c5.548-0.177,11.397,3.252,15.235,7.274
		C489.581,408.608,488.59,410.57,487.486,412.476z M491.047,405.275c-0.273-0.225-0.56-0.448-0.853-0.685
		c-1.674-1.353-3.339-2.953-5.252-3.966c-2.735-1.449-6.094-2.545-9.273-2.368c1.801-4.474,3.134-9.197,3.991-14.065
		c2.957,0.43,5.916,0.632,8.833,1.485c2.705,0.791,5.056,1.874,7.331,3.303C494.818,394.566,493.252,400.054,491.047,405.275z
		 M496.578,384.108c-0.135,1.096-0.298,2.189-0.474,3.28c-2.085-1.323-4.601-2.184-6.799-2.847
		c-2.927-0.884-6.292-1.633-9.458-1.476c0.673-4.194,1.025-8.475,1.024-12.78c3.301-0.28,6.611-0.401,9.923-0.287
		c2.451,0.085,4.5,0.576,6.616,1.255C497.371,375.578,497.1,379.881,496.578,384.108z M492.472,368.818
		c-3.855-0.28-7.769-0.03-11.612,0.371c-0.06-4.467-0.468-8.946-1.232-13.352c3.072-0.622,6.035-1.704,9.258-1.846
		c2.689-0.119,5.095,0.343,7.509,1.034c0.668,4.847,1.007,9.742,1.032,14.615C495.81,369.131,494.044,368.932,492.472,368.818z"/>
</g>
<g>
</g>
<g>
</g>
<g>
</g>
<g>
</g>
<g>
</g>
<g>
</g>
<g>
</g>
<g>
</g>
<g>
</g>
<g>
</g>
<g>
</g>
<g>
</g>
<g>
</g>
<g>
</g>
<g>
</g>
</svg>
