<?xml version="1.0" encoding="utf-8"?>
<!-- Generator: Adobe Illustrator 27.7.0, SVG Export Plug-In . SVG Version: 6.00 Build 0)  -->
<svg version="1.1" id="Isolation_Mode" xmlns="http://www.w3.org/2000/svg" xmlns:xlink="http://www.w3.org/1999/xlink" x="0px"
	 y="0px" viewBox="0 0 720 720" style="enable-background:new 0 0 720 720;" xml:space="preserve">
<style type="text/css">
	.st0{fill:#E01F2F;}
</style>
<g>
	<path class="st0" d="M631.71,544.4c-2.42-0.54-7.34-1.83-13.64-4.16c0.33,0.12,0.65,0.26,0.97,0.39
		C624.37,542.61,628.45,543.68,631.71,544.4z"/>
	<path class="st0" d="M633.4,544.75L633.4,544.75c-0.53-0.11-1.11-0.23-1.69-0.35C632.8,544.65,633.4,544.75,633.4,544.75z"/>
	<path class="st0" d="M141.27,535.72C123.48,559.12,99,591.36,97.89,593.2c-1.18,1.97-7.99,13.54-20.39,18.46
		c-17.32,5.6-21.78-2.86-21.78-2.86s-20.56,0.4-19.7,17.05h34.95v-0.02h33.31c0,0,0.58-14.58,15.16-17.49l60.92-48.82
		C156.9,555.69,146.15,544.52,141.27,535.72z"/>
	<g>
		<path class="st0" d="M487.03,525.19l-76.29,72.09l72.21-76.16c-0.7-0.7-1.42-1.4-2.16-2.12c-9.15-8.9-17.68-13.07-26.83-13.07
			c-10.91,0-22.71,5.71-37.09,13.4c2.02,14.66,2.11,33.84-7.43,46.78c-0.07,0.09-0.14,0.19-0.21,0.28
			c-10.71,14.14-19.46,25.74-20.11,26.82c-1.19,1.98-8.11,13.75-20.72,18.61c-0.46,0.18-0.9,0.3-1.33,0.44
			c-0.51,0.18-1.04,0.33-1.58,0.49c-0.7,0.19-1.4,0.37-2.07,0.49c-0.02,0-0.02,0-0.04,0c-11.13,2.07-16.38-4.44-16.38-4.44
			s-20.56,0.4-19.7,17.05h34.95v-0.02h33.28c0,0,0.58-14.58,15.16-17.49c0,0,0,0,0.02-0.02c0.05-0.05,0.25-0.19,0.54-0.44l0.44-0.35
			c6.99-5.78,49.59-41.09,73.3-66.94c3-3.27,5.69-6.39,7.96-9.27c-0.25-0.25-0.49-0.51-0.74-0.76
			C490.59,528.89,488.89,527.1,487.03,525.19z"/>
		<path class="st0" d="M384.77,207c0,0-0.02,20.99,7.18,27.11c7.2,6.15,22.41,1.46,32.15-9.76c11.84-13.64,18.61,5.09,18.61,5.09
			c0.37-14.56-12.78-15.8-12.78-15.8c14.72-7.18,20.65,8.89,20.65,8.89c-0.67-7.2-4.21-15.58-16.17-15.56
			c-16.51,0.04-18.79,17.6-33.3,20.07C386.6,229.51,384.77,207,384.77,207z"/>
		<path class="st0" d="M681.85,338.39c-2.6-12.08-7.18-23.27-13-33.56c-5.83-10.29-13.01-19.69-21.41-28.04
			c-8.38-8.34-18.05-15.77-29.27-21.3c-11.13-5.51-23.25-8.78-35.14-10.08c-11.92-1.3-23.62-0.74-34.79,0.84
			c-11.15,1.6-21.88,4.23-31.96,7.08c-2.55,0.72-4.85,1.35-7.64,2.23c-1.35,0.42-2.67,0.79-4.04,1.26l-4.07,1.4
			c-5.44,1.98-11.05,4.44-16.19,7.24c-1.32,0.68-2.53,1.39-3.76,2.09c-1.25,0.7-2.37,1.39-3.53,2.07l-6.46,3.88
			c-4.11,2.46-8.08,4.64-12.19,6.71c-4.16,2.02-8.38,4-12.78,5.81l-3.28,1.37l-3.49,1.4l-6.92,2.74
			c-9.15,3.56-18.16,6.76-27.22,9.32c-9.04,2.58-18.12,4.51-27.2,5.64c-9.08,1.12-18.14,1.4-27.13,0.74
			c-1.12-0.09-2.25-0.14-3.37-0.23l-3.34-0.42l-3.35-0.42c-0.53-0.05-1.18-0.18-1.79-0.26l-1.81-0.28
			c-4.78-0.77-9.4-1.62-13.96-2.63c-9.11-2.02-17.91-4.69-25.94-8.2c-8.03-3.51-15.24-7.92-20.67-13.21
			c-5.46-5.3-8.94-11.31-10.55-18.25c-1.6-7.01-1.3-15.05,0.76-22.79c1-3.88,2.42-7.69,4.23-11.31c1.79-3.64,3.93-7.09,6.43-10.24
			c2.48-3.18,5.25-6.08,8.31-8.57c3.04-2.51,6.32-4.69,9.82-6.39c1.72-0.91,3.58-1.51,5.36-2.28c1.86-0.53,3.69-1.23,5.62-1.56
			c3.81-0.86,7.76-1.32,11.82-1.26c0.02,0,0.04,0,0.05,0c2.83,0.02,5.62,0.49,8.34,1.21c1.46,0.39,2.97,0.74,4.5,1.04
			c3.93,0.77,7.39,1.58,10.47,2.44c0.23,0.09,0.46,0.18,0.68,0.26l0.04-0.07c3,0.84,5.62,1.72,7.87,2.58v-0.11
			c0.86,0.37,1.69,0.76,2.46,1.12c0.02,0,0.02,0,0.04,0.02c10.78,5.22,12.05,9.69,12.05,9.69c0.04,0.09,0.09,0.12,0.12,0.21
			c2.05,2.79,3.48,5.57,4.95,7.88c5.87,8.99,8.34,11.03,8.34,11.03l1.86-3.83c-7.55-8.34-9.78-32.65-9.78-32.65
			s15.95-3.3,23.13,0.12c6.95,3.35,0.95,16.12,0.6,16.74c5.65-2.35,11.43-13.79,11.43-13.79c4.74-2.69,3.53-11.17,3.53-11.17
			c-18.95-22.83-44.53-26.03-65.87-22.14c-2.48,0.04-4.92,0.14-7.34,0.33c-4.5,0.33-9.01,0.4-13.5,0.11
			c-1.18-0.07-2.35-0.12-3.53-0.16c-6.09-0.18-12.29,0.39-18.37,1.65c-3.07,0.54-6.04,1.51-9.04,2.39
			c-2.92,1.11-5.88,2.12-8.68,3.51c-5.65,2.65-10.94,6.02-15.77,9.87c-4.85,3.85-9.2,8.24-13.03,13c-3.86,4.74-7.18,9.89-9.96,15.3
			c-2.79,5.41-5.04,11.1-6.67,17c-3.28,11.78-4.27,24.53-1.62,37.37c1.39,6.41,3.69,12.78,6.92,18.56
			c3.21,5.8,7.27,11.01,11.73,15.51c4.48,4.51,9.34,8.34,14.36,11.63c5.02,3.28,10.2,6.06,15.44,8.45
			c10.47,4.78,21.13,8.1,31.77,10.62c5.3,1.26,10.64,2.32,15.86,3.23l1.93,0.33c0.65,0.11,1.23,0.23,1.97,0.32l4.18,0.6l4.2,0.58
			c1.4,0.14,2.81,0.25,4.21,0.37c11.22,0.97,22.5,0.76,33.56-0.44c22.14-2.37,43.22-8.82,62.78-16.17l7.25-2.76l3.58-1.39l3.74-1.49
			c4.99-1.97,9.99-4.21,14.96-6.55c4.95-2.41,9.9-5.06,14.54-7.74c4.65-2.69,8.78-5.22,12.57-7.16c3.79-1.98,7.52-3.55,11.61-4.99
			l3.13-1.02c1.04-0.35,2.16-0.63,3.23-0.95c2.05-0.61,4.65-1.3,6.97-1.93c9.45-2.55,18.49-4.58,27.41-5.74
			c8.9-1.12,17.61-1.39,25.83-0.39c8.22,1,15.93,3.25,22.93,6.81c6.94,3.51,13.54,8.6,19.44,14.61
			c5.88,6.01,11.06,12.92,15.12,20.32c4.07,7.38,7.09,15.21,8.68,22.99c1.55,7.76,1.6,15.38,0.02,22.23
			c-1.6,6.85-4.71,12.98-9.52,18.32c-4.74,5.36-11.08,9.92-18.28,13.4c-7.2,3.48-15.26,5.9-23.39,7.11
			c-4.06,0.61-8.15,0.91-12.12,0.88c-1,0.02-1.97-0.05-2.95-0.09l-2.81-0.28c-1.91-0.07-3.65-0.51-5.44-0.81
			c-0.91-0.11-1.74-0.4-2.6-0.65c-0.86-0.26-1.72-0.44-2.58-0.74c-1.69-0.68-3.39-1.18-5.11-2.05l-1.3-0.58l-0.65-0.3l-0.67-0.37
			l-2.67-1.44c-0.9-0.49-1.86-1.11-2.79-1.63l-1.4-0.84l-1.49-0.95c-3.86-2.42-8.29-5.37-13.01-8.25l-3.65-2.18
			c-1.21-0.72-2.56-1.42-3.85-2.12c-2.55-1.44-5.36-2.72-8.1-4.02c-0.68-0.33-1.39-0.63-2.11-0.91l-2.14-0.86
			c-1.44-0.56-2.86-1.18-4.32-1.67l-4.43-1.42c-1.48-0.47-2.95-0.95-4.46-1.26l-4.48-1.07c-0.76-0.18-1.49-0.35-2.25-0.51
			l-2.27-0.39c-3-0.56-6.04-0.9-9.06-1.25c-6.08-0.54-12.15-0.67-18.18-0.37c-1.49,0.09-2.99,0.25-4.48,0.35l-2.25,0.19l-2.21,0.3
			l-4.43,0.6l-4.36,0.81c-11.61,2.21-22.62,5.88-32.96,10.41c-5.18,2.25-10.19,4.76-15.08,7.39c-2,1.12-4.02,2.23-6.01,3.39
			c-36.46,10.5-75.81,5.09-107.56-16.07c-0.84-0.56-1.72-1.16-2.6-1.76c-1.09-0.09-2.04-0.25-3.14-0.35
			c-3.74-0.49-7.38-0.65-11.06-0.65c-4.23,0-8.38,0.4-12.42,1.09l-2.9,0.51l-2.99,0.74c-0.95,0.19-1.84,0.49-2.84,0.76
			c-0.95,0.35-1.93,0.54-2.79,0.95c-3.85,1.3-7.48,3.09-11.12,4.99c2.9-2.95,6.18-5.55,9.87-7.57c3.74-2,7.64-3.76,11.71-4.85
			c4.11-1.14,8.39-1.84,12.57-2.09c2.9-0.16,5.69-0.16,8.62,0c-6.22-7.73-19.79-23.18-31.14-27.08c0,0-39.74-30.17-52.4-39.72
			c-12.71-9.68-27.17-27.13-24.94-32.86c0,0,9.57-13.96,17.89-16.54c8.27-2.7,10.47-12.28,10.47-12.28s-12.28,3.49-27.57,3.93
			s-22.23,4.39-22.23,4.39s-8.78-7.04-18.81-8.34c0,0,0.84-30.15,40.64-49.4c39.78-19.18,86.49-44.5,104.42-98.2
			c-1.49,2.35-24.97,39.6-53.28,50.1c-29.26,10.92-66.43,23.18-78.2,30.64c-11.85,7.43-34.56,32.35-47.7,79.13l-49.31,57.72
			c0,0,2.58,6.97,6.94,6.53c0,0,1.3,9.57,10.01,5.62c0,0,2.23,10.08,0.46,14.01c-1.76,3.95,4.43,16.16,12.66,18.35l-0.79-4.79
			c0,0,2.16,5.23,9.57,7.43c0,0-7.83-10.06-4.85-19.69c2.56-7.92,1.53-11.77,1.05-12.91l3.79,7.67c0,0,1.28-10.47-4.04-18.68
			c1.93,2.49,11.36,12.92,31.26,5.94c1.79-1.62,3.49-3.28,5.04-4.99l2.18-2.53c0.76-0.81,1.32-1.76,2-2.65
			c1.39-1.7,2.49-3.58,3.83-5.43c0.6-0.95,1.16-1.93,1.7-2.95c0.6-0.95,1.19-1.93,1.9-2.88c1.11-2,2.25-3.99,3.6-6.04
			c-0.16,2.39-0.49,4.74-0.9,7.08c-0.39,1.19-0.65,2.35-0.98,3.49l-0.65,1.69c-0.21,0.61-0.3,1.16-0.6,1.7
			c-0.49,1.09-0.98,2.23-1.55,3.28c-0.49,1.14-1.09,2.12-1.84,3.2c-0.6,0.98-1.23,2.09-1.93,3.04l-2.35,2.83
			c-1.69,1.84-3.58,3.6-5.57,5.15c-0.46,4.23-1.7,10.22-4.39,15.73c-0.39,0.91-0.79,1.76-1.14,2.55c1.19-1,24.15-19.55,60.08-3.06
			l1.9,0.79l-0.98,1.84l-2.65,4.58c4.79-1.14,9.68-1.19,14.47-0.11c6.41,1.55,11.77,6.09,15.3,11.27c3.69,5.2,5.74,11.22,7.48,17
			c0.84,2.9,1.79,5.83,3.42,8.24c1.65,2.44,4.39,4.04,7.48,4.5c-3.09-0.05-6.23-1.35-8.18-3.9c-2.05-2.49-3.2-5.43-4.34-8.24
			c-2.2-5.72-4.39-11.41-8.1-16.03c-3.58-4.6-8.38-8.24-13.91-9.54c-5.53-1.3-11.66-0.49-16.74,1.7l-4.95,2.09l2.55-4.74l3.79-6.83
			c-7.43-3.04-15.4-4.64-23.32-3.9c-8.62,0.76-16.95,3.99-24.43,8.57c-0.05,0.05-0.11,0.09-0.16,0.16
			c-9.71,5.83-17.4,14.45-22.93,24.32c-6.08,10.82-13.91,25.13-19.14,35.6c-9.68,19.19-18.35,22.74-18,31.45
			c0.46,8.73-4.34,38.88-7.78,45.03c0,0,0.79,9.68,10.87,8.71c0,0,0,7.48,10.01,6.57c0,0-6.13-9.17,2.69-13.56
			c8.78-4.34,14.4-0.39,16.56,4.79c2.2,5.27-4.79,12.85-10.22,8.82l-2.44-3.99c0,0-6.97,11.36,6.53,14.42c0,0,1.35,7.92,15.35,7.48
			c0,0-7.87-3.93-1.69-10.08c0,0,10.41-3.93,8.32-23.62c0,0,0.25-1.4,1.19-2.25c0.14-1.88,0.32-3.78,0.65-5.62
			c0.6-3.99,1.33-7.88,3.23-11.82c0.86-1.93,2.05-3.99,4.25-5.57l0.65-0.46l0.54-0.35c0.3-0.25,0.65-0.46,1.04-0.79
			c0.56-0.49,1.35-1.05,1.84-1.69c2.49-2.55,4.69-5.58,6.48-8.87c1.98-3.2,3.69-6.69,5.18-10.19c-0.3,3.9-1.28,7.64-2.6,11.38
			c-1.28,3.74-3.04,7.38-5.62,10.66c-0.65,0.84-1.35,1.63-2.11,2.39c-0.39,0.39-0.79,0.68-1.23,1.11l-0.6,0.49l-0.35,0.25
			l-0.19,0.16c-0.81,0.74-1.62,2.12-2.25,3.74c-1.25,3.14-2.05,6.78-2.55,10.41c-0.35,2.2-0.6,4.34-0.79,6.48
			c0.76,0.7,1.49,1.6,2.35,2.74c7.13,9.78,0.79,25.18,23.72,36.46c-0.84-2.09-1.69-4.28-2.42-6.48c-2.3-7.08-3.85-14.56-4.23-22.02
			c-0.26-3.79-0.21-7.57,0-11.38c0.19-3.74,0.79-7.48,1.39-11.22c0.44-1.84,0.74-3.74,1.19-5.53l0.68-2.79l0.81-2.69
			c0.54-1.79,1.19-3.6,1.88-5.37l0.79-2.55c0.37-0.79,0.56-1.6,0.81-2.49c1.93-6.73,2.83-13.77,1.9-20.63
			c-0.9-6.78-3.49-13.4-7.78-18.79c-0.98-1.35-2.14-2.65-3.42-3.79c-1.25-1.14-2.65-2.16-4.09-3.09c-1.46-0.9-2.99-1.6-4.64-2.14
			c-1.55-0.51-3.2-0.79-4.9-0.84c-3.55-0.16-6.94,0.49-10.03,2.35c-1.49,0.9-2.9,2.04-4.04,3.39c-1.25,1.3-2.35,2.84-3.06,4.48
			c0.91-3.53,3.06-6.88,6.2-9.27c2.93-2.42,6.92-3.74,10.85-3.93c1.95-0.09,3.93,0,5.9,0.46c1.93,0.46,3.88,1.11,5.62,2.09
			c1.76,0.84,3.44,2,4.93,3.2c1.55,1.23,2.99,2.6,4.28,4.04c2.65,2.95,4.83,6.29,6.34,9.87c1.69,3.58,2.9,7.38,3.34,11.26
			c1.14,7.78,0.39,15.66-1.95,23.04c-0.25,0.9-0.54,1.83-0.84,2.74l-0.98,2.65c-0.61,1.7-1.25,3.39-1.76,5.09
			c-1.16,3.39-2.09,6.88-2.9,10.38c-0.65,3.49-1.39,7.02-1.74,10.62c-0.3,3.53-0.6,7.18-0.49,10.76c0,3.6,0.19,7.18,0.54,10.76
			c0.39,3.6,1.09,7.13,1.83,10.71c0.65,2.79,1.51,5.57,2.35,8.32c0,0.05,0.05,0.05,0.05,0.05s0,0.05,0.05,0.16
			c1.33,4.13,3.09,8.11,5.13,11.98c2.79,3.88,6.94,8.08,13.26,11.56c6.34,3.42,14.82,6.27,26.18,7.32
			c41.97,3.93,41.06,13.12,46.77,20.55c0,0,3.93-15.26-4.79-22.74c0,0,6.08-0.46,21.39,14.86c15.3,15.31,25.41,7.88,25.41,7.88
			s-11.45,1.3-16.6-7.88c-5.27-9.17-7.52-30.56-14.51-34.93v-1.79c-1.09-1.25-2.2-2.55-3.35-3.9c-2.55-3.14-4.83-6.43-7.13-9.87
			c-2.12-3.39-4.23-6.92-5.83-10.85c3.49,2.39,6.53,5.2,9.48,8.01c2.35,2.41,4.53,4.85,6.73,7.38c2.2,2.6,4.28,5.23,6.23,8.04
			c3.14,4.53,5.9,9.11,8.13,14.36h0.05c13.72,17.44,32.15,43.62,28.57,55.07c-1.55,4.74-3.79,7.64-6.18,9.38
			c-6.78,4.88-15.26,0.65-15.26,0.65s-20.58,0.44-19.69,17.05h62.5c0,0,7.43-10.52,16.26-13.96c8.62-3.51-19.37-72.54-19.74-73.48
			c0.67,0.39,26.39,15.45,73.86-6.53c48.12-22.28,72.19-48.89,104.89-17.03c32.75,31.91,21.83,34.09,121.54,53.79
			c0,0,34.1,13.12,19.65,38.88c0,0,0.11,0.44,0,1.09v-1.09c-10.22,9.15-16.4,1.3-16.4,1.3s-20.55,0.44-19.63,17.05h67.59
			c0,0-1.84-10.52,7.32-13.96c9.24-3.53-10.06-27.97-16.16-50.29c-4.58-16.89-4.53-14.75-15.35-16.86c0,0-0.02,0-0.04-0.02
			c-0.02,0-0.04-0.02-0.07-0.04c-0.05,0-0.16,0-0.25-0.05h-0.25c-0.25-0.05-0.6-0.16-1.09-0.25h-0.05c-0.21-0.05-0.4-0.09-0.61-0.16
			c-0.11-0.02-0.19-0.05-0.3-0.07s-0.23-0.05-0.35-0.07c-0.05,0-0.11,0-0.19-0.05c-0.11,0-0.21-0.05-0.25-0.05
			c-0.05-0.04-0.09-0.04-0.16-0.05c-0.02,0-0.04-0.02-0.05-0.02s-0.04-0.02-0.04-0.02c-0.04-0.02-0.04-0.02-0.07-0.04
			c-0.05,0-0.09-0.05-0.19-0.05h-0.11c-0.09-0.05-0.19-0.05-0.3-0.05c-0.7-0.21-1.55-0.4-2.41-0.65c-0.09,0-0.16-0.05-0.25-0.05
			c-0.11,0-0.16-0.05-0.25-0.09c-0.26-0.09-0.53-0.18-0.81-0.26c-0.19-0.05-0.39-0.11-0.56-0.18c-0.18-0.07-0.37-0.11-0.54-0.18
			c-0.18-0.05-0.37-0.11-0.54-0.18c-0.3-0.11-0.6-0.19-0.91-0.26c-1.14-0.4-2.46-0.79-3.74-1.3c-0.16-0.11-0.33-0.16-0.49-0.25
			c0-0.02-0.02-0.02-0.02-0.02h-0.02c-0.11-0.04-0.18-0.05-0.23-0.09c-0.04-0.02-0.07-0.04-0.11-0.05c0,0,0,0-0.02-0.02
			s-0.05-0.04-0.09-0.05c-8.9-3.34-20.58-8.85-31.89-17.65c0,0-0.04-0.04-0.11-0.09c-3.9-3.04-7.76-6.44-11.43-10.29
			c-0.04-0.04-0.07-0.07-0.11-0.11c-13.26-12.8-34.72-36.3-47.31-64.59c-0.35-0.79-0.74-1.58-1.12-2.35c0-0.02-0.02-0.02-0.02-0.02
			c-3.25-6.37-7.92-12.15-13.49-17.37c-0.3-0.28-0.6-0.56-0.9-0.83c0.02,0,0.04,0.02,0.05,0.02c-4.79-4.69-10.1-8.9-15.61-12.66
			l2.81,0.84c0.93,0.3,1.84,0.7,2.77,1.05l1.39,0.53c0.46,0.16,0.93,0.35,1.39,0.58c1.83,0.88,3.67,1.63,5.53,2.69
			c0.93,0.51,1.84,0.95,2.81,1.51l2.88,1.69c0.95,0.53,2,1.21,2.99,1.83l3.09,1.91l3.21,2.02l3.44,2.12
			c9.15,5.71,21.35,11.94,34.28,14.31l4.81,0.83c1.62,0.32,3.18,0.35,4.78,0.51l4.76,0.37c1.56,0.04,3.13,0.11,4.65,0.07
			c6.16-0.02,12.2-0.56,18.16-1.53c11.87-1.93,23.43-5.51,34.4-10.98c5.5-2.72,10.82-5.97,15.89-9.75
			c5.08-3.76,9.85-8.15,14.14-13.1c4.3-4.93,8.08-10.5,11.08-16.47c3-5.99,5.25-12.35,6.64-18.83
			C684.92,363.52,684.41,350.44,681.85,338.39z M379.22,175.86l15,10.55l-23.46-8.52L379.22,175.86z M85.99,279.4l11.61-13.42h8.43
			L85.99,279.4z M150.4,270.47l5.6-12.15l29.31-10.52l-23.99,11.36L150.4,270.47z M70.99,449.54l11.61-13.36h8.52L70.99,449.54z
			 M170.54,512c-3.69-5.58-5.64-12.36-6.04-19.11c-0.25-3.34-0.05-6.73,0.35-10.06c0.25-0.86,0.35-1.7,0.54-2.6
			c0.19-1.05,0.4-1.6,0.56-2.44c0.44-1.49,0.68-2.99,0.98-4.53c1.14-6.18,1.69-12.52,1.79-18.81c0.32-12.61-1.39-25.32-4.64-37.48
			c-0.84-3.09-1.84-6.04-2.99-8.92c-1.14-2.95-2.6-5.74-4.23-8.32c-1.7-2.65-3.69-5.08-6.13-7.02c-1.25-0.95-2.53-1.81-3.99-2.49
			c-1.44-0.65-2.95-1.16-4.53-1.25c3.2-0.46,6.59,0.65,9.48,2.35c1.74,0.98,3.39,2.23,4.79,3.6c0.65-1.46,1.19-2.9,1.44-4.41
			c0.35-1.53,0.44-3.09,0.44-4.64c-0.09-3.04-0.79-6.04-1.93-8.87c-1.09-2.84-2.6-5.58-4.34-8.18c-1.4-2.18-2.95-4.34-4.65-6.27
			l-2.48,0.81c-1.25,0.46-2.55,0.95-3.83,1.39c-1.26,0.54-2.46,1.09-3.69,1.65l-1.7,0.98c-0.6,0.3-1.19,0.6-1.79,1
			c-2.25,1.39-4.28,3.04-5.94,5.09c-0.51,0.54-0.84,1.09-1.16,1.63c-0.25,0.3-0.46,0.6-0.6,0.9c-0.09,0.3-0.35,0.6-0.44,0.91
			c-0.54,1.23-0.9,2.53-1.05,3.99c-0.3-1.4-0.3-2.9-0.11-4.36c0.11-0.68,0.35-1.44,0.54-2.12c0.35-0.65,0.6-1.46,0.95-2.05
			c0.74-1.39,1.55-2.53,2.6-3.74l1.44-1.63c0.61-0.49,1.16-0.95,1.76-1.46c0.54-0.54,1.19-0.93,1.74-1.33l1.84-1.3
			c1.25-0.65,2.55-1.46,3.83-2.05c1.39-0.6,2.69-1.25,4.04-1.76l4.09-1.44l1.35-0.46l1,1.04c1.28,1.35,2.25,2.65,3.28,3.99
			c1.05,1.35,2,2.74,2.79,4.2c1.79,2.88,3.2,6.02,4.13,9.41c0.4,1.6,0.79,3.28,0.9,5.04c0.16,1.74,0.05,3.49-0.16,5.18
			c-0.35,1.69-0.79,3.34-1.49,4.88c-0.81,1.46-1.7,2.84-2.76,4c0.98,0.95,1.84,1.9,2.76,2.97c2.12,2.6,3.88,5.44,5.43,8.43
			c1.55,2.95,2.84,6.09,3.88,9.17c2.2,6.29,3.69,12.71,4.76,19.25c0.95,6.53,1.33,13.15,1.14,19.79
			c-0.16,6.62-0.98,13.29-2.46,19.79c-0.35,1.6-0.9,3.2-1.39,4.83c-0.19,0.76-0.54,1.69-0.68,2.2c-0.19,0.68-0.35,1.49-0.46,2.2
			c-0.65,2.99-1,6.11-1,9.22c0,3.09,0.35,6.18,1.05,9.18c0.65,3.09,1.63,5.99,3.09,8.82c1.44,2.74,3.28,5.34,5.43,7.67
			c2.11,2.34,4.53,4.5,7.18,6.32C179.46,522.03,174.23,517.67,170.54,512z M207.58,458.21c0.25,2.49,0.76,4.97,1.35,7.57
			c0.65,2.48,1.6,4.93,2.53,7.48c-2.04-1.79-3.79-4.04-5.18-6.43c-1.35-2.44-2.41-5.02-3.2-7.81c-0.68-2.69-1.04-5.5-1.23-8.29
			c-0.16-2.83,0-5.62,0.35-8.36c0.6-5.6,2.2-10.98,4.34-16c2.2-4.99,4.83-9.78,8.53-13.91c-1.49,5.18-3.04,10.26-4.25,15.4
			c-1.23,5.04-2.18,10.12-2.9,15.21C207.32,448.1,207.18,453.17,207.58,458.21z M601.46,548.79c5.23,0.49,10.36,1.46,15.44,2.9
			c2.49,0.76,4.99,1.65,7.34,2.79c2.39,1.19,4.69,2.6,6.73,4.43l1.46,1.55c0.39,0.49,0.74,0.98,1.19,1.49
			c0.79,1.05,1.65,2.11,2.46,3.2c1.49,2.09,3.04,4.23,4.37,6.5c2.65,4.48,5.08,9.11,7.18,14l-0.19,0.11
			c-3.2-4.2-6.09-8.53-8.97-12.82l-4.36-6.48c-0.65-1.09-1.39-2.14-2.12-3.25c-0.4-0.49-0.81-1.04-1.11-1.6l-1.14-1.35
			c-1.84-1.74-3.9-3.23-6.13-4.37c-2.3-1.25-4.64-2.23-7.13-3.09c-4.83-1.74-9.87-2.93-15.07-3.74L601.46,548.79z M438.98,462.85
			c-1.6,0.95-3.04,2.09-4.39,3.28c-1.35,1.14-2.6,2.55-3.69,3.99c-0.6,0.65-1.05,1.39-1.55,2.16c-0.46,0.76-0.9,1.55-1.19,2.23v0.05
			l-0.16,0.21c-2.55,4.07-5.34,8.08-8.59,11.68c-1.39,1.93-3.18,3.64-4.88,5.43c-0.84,0.84-1.69,1.6-2.6,2.49
			c-0.95,0.79-1.74,1.63-2.74,2.39c-7.39,6.34-15.72,11.52-24.53,15.51c-8.78,4.04-18.16,6.78-27.57,8.52
			c-4.79,0.84-9.48,1.46-14.29,1.65c-2.46,0.16-4.85,0.19-7.24,0.16c-2.35-0.05-4.69-0.16-7.04-0.46
			c9.41-1.05,18.65-2.84,27.61-5.34c4.55-1.19,8.92-2.69,13.36-4.28c4.28-1.6,8.62-3.34,12.77-5.39
			c8.32-3.99,16.24-8.82,23.37-14.59c7.24-5.72,13.66-12.42,19.44-19.74c1.05-1.79,2.25-3.2,3.64-4.55
			c1.35-1.44,2.95-2.69,4.58-3.74c1.65-1.09,3.34-1.98,5.15-2.63c1.79-0.76,3.74-1.16,5.57-1.51c-0.84,0.4-1.79,0.7-2.58,1.19
			C440.67,461.95,439.77,462.35,438.98,462.85z M507.47,503.47l2.49,3.6c0.84,1.11,1.6,2.28,2.49,3.39l2.65,3.34l1.39,1.65
			l1.39,1.49c1.02,1.05,2,2.05,2.99,3.09l3.09,2.84c1.09,1.05,2.2,1.9,3.28,2.79c1.09,0.9,2.2,1.79,3.39,2.63
			c4.53,3.39,9.43,6.39,14.51,8.94c5.18,2.55,10.57,4.74,16.16,6.18l-0.16,0.54c-5.8-0.98-11.38-2.79-16.7-5.09
			c-5.34-2.23-10.57-4.97-15.44-8.22c-1.32-0.68-2.49-1.63-3.71-2.49c-1.19-0.9-2.34-1.69-3.48-2.67l-3.35-2.84
			c-1.09-0.93-2.2-1.98-3.28-2.99l-1.55-1.53l-1.49-1.65l-3.04-3.28c-0.95-1.14-1.81-2.28-2.69-3.49l-2.69-3.42l-1.3-1.65
			l-1.39-1.55c-0.86-1.09-1.84-1.98-2.79-2.99c-2.05-1.83-4.18-3.64-6.43-5.18c-2.3-1.62-4.58-2.95-7.08-4.23
			c-2.39-1.25-4.88-2.46-7.52-3.39c-10.27-4.04-21.58-5.9-33.12-6.2l-0.09-0.6c5.69-1.55,11.63-2.05,17.54-1.81
			c2.93,0.11,5.99,0.46,8.87,0.91c2.99,0.49,5.94,1.3,8.82,2.2c1.4,0.46,2.79,0.98,4.2,1.55c1.39,0.6,2.79,1.23,4.14,1.98
			c1.33,0.65,2.58,1.46,3.93,2.3c0.6,0.39,1.25,0.84,1.9,1.23c0.61,0.51,1.21,0.95,1.81,1.4C500.04,494,504.13,498.55,507.47,503.47
			z"/>
	</g>
</g>
</svg>
